<?xml version="1.0" encoding="UTF-8"?>
<svg version="1.1" xmlns="http://www.w3.org/2000/svg" width="512" height="512">
<path d="M0 0 C1.14162598 0.00418945 2.28325195 0.00837891 3.45947266 0.01269531 C12.07595914 0.12769598 19.93170803 0.93731403 28.25 3.3125 C29.24128906 3.57933594 30.23257813 3.84617187 31.25390625 4.12109375 C45.0319562 8.24900485 57.17173995 15.24537023 68.25 24.3125 C68.90226563 24.81265625 69.55453125 25.3128125 70.2265625 25.828125 C75.74936639 30.21610617 79.95777726 35.75785881 84.25 41.3125 C84.85972656 42.08335938 85.46945313 42.85421875 86.09765625 43.6484375 C100.96381489 63.49255814 105.88041707 87.42830901 105.32910156 111.77709961 C104.83866323 119.5704524 104.83866323 119.5704524 108.00756836 126.24902344 C110.04527735 127.50349598 112.04831132 128.39142201 114.25 129.3125 C121.69011297 136.9536971 121.77126747 144.96446658 121.75 155.125 C121.77835937 156.34509766 121.80671875 157.56519531 121.8359375 158.82226562 C121.85424858 167.3414961 120.59391293 174.34931957 114.84228516 180.92089844 C106.98506086 188.03815785 99.34240197 187.69044016 89.25 187.3125 C89.12044922 188.67568359 89.12044922 188.67568359 88.98828125 190.06640625 C86.2519981 214.54233349 75.07283969 235.27087145 56.25 251.3125 C54.04486338 252.3195296 51.83656207 253.31966097 49.625 254.3125 C46.38412747 255.9916632 46.38412747 255.9916632 44.25 259.3125 C42.42062609 268.13279884 42.87439124 277.35739221 43.25 286.3125 C44.08700439 286.35713379 44.92400879 286.40176758 45.78637695 286.44775391 C56.1253441 287.06225212 66.38342802 288.13445414 76.66674805 289.359375 C79.44293395 289.68814351 82.22036911 290.00442836 84.99804688 290.3203125 C103.93195448 292.52496946 120.66035666 296.21105343 135.25 309.3125 C136.07113281 310.04082031 136.89226562 310.76914062 137.73828125 311.51953125 C153.02614793 325.87945458 159.48885946 344.47042569 160.36661911 365.04619598 C160.55676201 372.76798787 160.53043045 380.49126228 160.515625 388.21484375 C160.51697476 390.70772845 160.51891788 393.2006129 160.52142334 395.6934967 C160.52435612 400.89017266 160.52013415 406.08677941 160.51074219 411.28344727 C160.49930699 417.93322124 160.50594451 424.58275228 160.51788712 431.2325201 C160.52512018 436.36869007 160.52281183 441.504822 160.51763153 446.64099312 C160.5163012 449.09332867 160.51792106 451.54566772 160.52259064 453.99799919 C160.52768422 457.42185488 160.51990749 460.84545072 160.50878906 464.26928711 C160.51283752 465.27359268 160.51688599 466.27789825 160.52105713 467.31263733 C160.47907394 474.31115932 160.38298737 481.7643427 155.375 487.1875 C154.88257813 487.74179687 154.39015625 488.29609375 153.8828125 488.8671875 C150.50079618 491.86083831 147.61724627 492.56273507 143.15182686 492.56976891 C142.11647777 492.5762178 141.08112868 492.58266669 140.01440537 492.589311 C138.87842876 492.5862138 137.74245215 492.5831166 136.572052 492.57992554 C135.3641362 492.58445665 134.1562204 492.58898776 132.91170108 492.59365618 C129.55738537 492.6041395 126.20328378 492.60562381 122.84896684 492.60326743 C119.23196766 492.60285968 115.61500061 492.61389438 111.99801636 492.62338257 C104.91119162 492.6400024 97.82440014 492.64549255 90.73755755 492.64660732 C84.97778292 492.6475573 79.21801929 492.65166507 73.45824814 492.65800858 C57.13236073 492.67562341 40.80649962 492.68484703 24.48060264 492.68334763 C23.16013353 492.68322776 23.16013353 492.68322776 21.81298828 492.68310547 C20.93160218 492.68302371 20.05021607 492.68294195 19.1421213 492.68285771 C4.85536023 492.68204466 -9.43129545 492.70118631 -23.71802603 492.7293822 C-38.3834901 492.75809745 -53.04890274 492.77192326 -67.71439564 492.77019465 C-75.94960487 492.76953029 -84.18470361 492.77504256 -92.41988754 492.79655075 C-99.43107501 492.81474466 -106.4421019 492.81912467 -113.45330273 492.8055319 C-117.03080702 492.7989932 -120.60800307 492.79891713 -124.18547821 492.8162384 C-128.06315718 492.83482019 -131.94038396 492.82243809 -135.81808472 492.80697632 C-136.94959988 492.81726344 -138.08111505 492.82755057 -139.24691856 492.83814943 C-145.4036617 492.78372973 -149.08315791 492.46256091 -153.75 488.3125 C-157.4461691 484.11684859 -158.87168623 481.82140769 -158.89717102 476.27558899 C-158.90432632 475.20909119 -158.91148163 474.14259338 -158.91885376 473.04377747 C-158.92154266 471.86828842 -158.92423157 470.69279938 -158.92700195 469.48168945 C-158.93357315 468.24728119 -158.94014435 467.01287292 -158.94691467 465.74105835 C-158.96669957 461.63596355 -158.97832999 457.53090798 -158.98828125 453.42578125 C-158.99233003 452.00896879 -158.99644699 450.59215653 -159.00063133 449.17534447 C-159.01970075 442.50806548 -159.03391937 435.84079758 -159.0422433 429.17349654 C-159.0519761 421.50555657 -159.07818355 413.83790833 -159.11874419 406.17007095 C-159.14907618 400.22929101 -159.16372883 394.28859374 -159.16702431 388.34773797 C-159.16935851 384.8075585 -159.17810056 381.26768995 -159.20348549 377.72759438 C-159.39679738 349.30872844 -159.39679738 349.30872844 -154.75 337.3125 C-154.45494568 336.54628326 -154.15989136 335.78006653 -153.855896 334.9906311 C-149.67038776 325.2432132 -143.27432114 317.63223235 -135.75 310.3125 C-134.84121094 309.40757812 -134.84121094 309.40757812 -133.9140625 308.484375 C-119.71340248 295.32278766 -102.15007518 292.51814675 -83.75 290.3125 C-83.06748169 290.23002014 -82.38496338 290.14754028 -81.6817627 290.06256104 C-76.22683356 289.40376117 -70.77024586 288.76001788 -65.3125 288.125 C-64.53711884 288.03428223 -63.76173767 287.94356445 -62.96286011 287.85009766 C-60.72698053 287.59005865 -58.49057636 287.33517084 -56.25390625 287.08203125 C-54.95267822 286.93354736 -53.6514502 286.78506348 -52.31079102 286.63208008 C-49.09760584 286.34369753 -45.97331109 286.25124869 -42.75 286.3125 C-41.35736539 271.39998609 -41.35736539 271.39998609 -44.86376953 257.35986328 C-47.70207165 254.52754283 -51.31947403 252.98615962 -54.9140625 251.31494141 C-69.53938735 243.32935845 -79.48588466 224.29237805 -84.75 209.3125 C-86.7239199 202.39990993 -88.04894848 195.46322549 -88.75 188.3125 C-89.64460938 188.29832031 -90.53921875 188.28414062 -91.4609375 188.26953125 C-100.38979154 187.91732699 -108.15566557 187.05040739 -114.625 180.37890625 C-120.85754985 172.45338012 -121.14173791 165.47401832 -121.1875 155.625 C-121.22037109 154.39587891 -121.25324219 153.16675781 -121.28710938 151.90039062 C-121.33723865 143.35562746 -120.20727818 136.14996201 -114.23583984 129.66918945 C-111.63355171 127.38900731 -108.84558146 125.80370483 -105.75 124.3125 C-105.73541748 123.52302979 -105.72083496 122.73355957 -105.70581055 121.92016602 C-105.20849849 97.7803225 -103.54769278 76.06532202 -92.3125 54.1875 C-91.77375244 53.12112305 -91.77375244 53.12112305 -91.22412109 52.03320312 C-88.71161847 47.35096461 -86.16345659 44.32114282 -81.75 41.3125 C-78.15093743 41.3125 -75.88594736 41.55520176 -72.875 43.5625 C-71.40974196 45.84179029 -71.05744057 47.6204242 -70.75 50.3125 C-71.5 52.49609375 -71.5 52.49609375 -72.75 54.75 C-73.21277344 55.62140625 -73.67554687 56.4928125 -74.15234375 57.390625 C-74.67957031 58.35484375 -75.20679687 59.3190625 -75.75 60.3125 C-84.56790985 76.57358988 -87.7190331 91.69686255 -88.3125 110.25 C-88.37727539 112.13428711 -88.37727539 112.13428711 -88.44335938 114.05664062 C-88.54893619 117.14182968 -88.65104551 120.22709263 -88.75 123.3125 C-87.93015625 123.26609375 -87.1103125 123.2196875 -86.265625 123.171875 C-85.18796875 123.13578125 -84.1103125 123.0996875 -83 123.0625 C-81.93265625 123.01609375 -80.8653125 122.9696875 -79.765625 122.921875 C-76.75 123.3125 -76.75 123.3125 -74.39746094 125.04394531 C-72.56505498 127.56716941 -72.22381532 128.78133307 -72.140625 131.859375 C-72.09228516 133.12587891 -72.09228516 133.12587891 -72.04296875 134.41796875 C-72.02878906 135.29066406 -72.01460938 136.16335937 -72 137.0625 C-71.95552734 138.39474609 -71.95552734 138.39474609 -71.91015625 139.75390625 C-71.83963082 141.94019449 -71.78685363 144.12542768 -71.75 146.3125 C-71.08355469 145.68085938 -70.41710937 145.04921875 -69.73046875 144.3984375 C-66.22028154 141.9417665 -63.19994649 141.45068645 -59.0625 140.9375 C-42.68622838 138.44254472 -23.21008799 133.10545917 -12.75 119.3125 C-10.80896182 116.21797602 -8.98664809 113.08963622 -7.23046875 109.88671875 C-5.75 107.3125 -5.75 107.3125 -3.75 105.3125 C-0.7496291 104.97374845 1.3520407 104.77347957 4.25 105.3125 C6.68196525 107.45835169 7.95125396 109.76991764 9.50390625 112.58984375 C18.02117635 127.65171922 31.93161716 134.12367102 47.97558594 138.74853516 C53.43449119 140.22859923 58.87953711 141.12721011 64.515625 141.66015625 C67.88308106 142.46353505 69.71138007 144.01013849 72.25 146.3125 C72.26401855 145.48057129 72.26401855 145.48057129 72.27832031 144.63183594 C72.33215722 142.10783519 72.41577254 139.58566186 72.5 137.0625 C72.51417969 136.18980469 72.52835938 135.31710938 72.54296875 134.41796875 C72.57519531 133.57363281 72.60742188 132.72929687 72.640625 131.859375 C72.66157227 131.08432617 72.68251953 130.30927734 72.70410156 129.51074219 C73.47840344 126.39275736 74.67567305 125.20717899 77.25 123.3125 C80.265625 122.921875 80.265625 122.921875 83.5 123.0625 C84.57765625 123.09859375 85.6553125 123.1346875 86.765625 123.171875 C87.58546875 123.21828125 88.4053125 123.2646875 89.25 123.3125 C88.61257308 91.22280911 84.73178568 64.82768794 61.25 41.3125 C60.51910156 40.57 59.78820312 39.8275 59.03515625 39.0625 C41.51662715 22.35954488 18.30131137 16.48473286 -5.2421875 17.02734375 C-19.30288032 17.59905276 -39.43139704 21.99389704 -49.75 32.3125 C-51.7109375 32.515625 -51.7109375 32.515625 -54.125 32.5625 C-55.31222656 32.60117188 -55.31222656 32.60117188 -56.5234375 32.640625 C-59.27340652 32.23536641 -60.08664071 31.49950944 -61.75 29.3125 C-62.80474136 25.84692125 -63.13174043 24.10563061 -61.54296875 20.8046875 C-58.52308361 16.60711295 -54.22684202 14.73397696 -49.75 12.3125 C-48.98558594 11.87808594 -48.22117187 11.44367187 -47.43359375 10.99609375 C-42.40260616 8.28055223 -37.24456874 6.3522211 -31.8125 4.625 C-31.18069824 4.42253662 -30.54889648 4.22007324 -29.89794922 4.01147461 C-19.99439975 0.9987159 -10.3320314 -0.05198891 0 0 Z M-2.30859375 131.81640625 C-2.92863281 132.49574219 -3.54867187 133.17507812 -4.1875 133.875 C-16.34679436 146.23006117 -36.39621075 155.00284035 -53.74780273 156.48291016 C-57.32692817 156.94703829 -59.17179216 157.66506157 -61.61572266 160.40161133 C-63.52485606 163.21595968 -65.1924409 166.07238076 -66.8125 169.0625 C-67.38669678 170.10712402 -67.96089355 171.15174805 -68.55249023 172.22802734 C-72.87314338 180.56481693 -74.4665032 186.10401459 -71.75 195.3125 C-71.48703125 196.405625 -71.2240625 197.49875 -70.953125 198.625 C-65.57778255 218.61750173 -53.00742767 235.14015977 -35.1171875 245.55859375 C-17.46589547 254.75282823 2.0962705 257.47877188 21.3046875 251.69140625 C34.09997462 247.41037222 43.94328772 241.00461294 53.25 231.3125 C53.92546875 230.63316406 54.6009375 229.95382813 55.296875 229.25390625 C63.8289009 220.17447161 68.82458074 209.22099021 71.76757812 197.25146484 C72.20730636 195.4840956 72.71725834 193.73457599 73.234375 191.98828125 C75.3797632 181.14360555 69.66486914 172.04195554 63.98046875 163.12109375 C61.08205038 159.05343981 58.99447402 156.75980691 53.9375 155.6875 C51.70969383 155.54022916 49.48024929 155.41640934 47.25 155.3125 C44.58979364 154.65562527 42.03872344 153.9582487 39.4375 153.125 C38.43807373 152.81127441 38.43807373 152.81127441 37.41845703 152.49121094 C24.66061644 148.31102139 12.75131948 142.03080384 3.3125 132.375 C2.631875 131.694375 1.95125 131.01375 1.25 130.3125 C-0.87110364 130.08104361 -0.87110364 130.08104361 -2.30859375 131.81640625 Z M-102.8984375 141.125 C-105.62964433 145.82682442 -105.47994143 149.96748332 -105.375 155.3125 C-105.39433594 156.29734375 -105.41367188 157.2821875 -105.43359375 158.296875 C-105.40339307 162.76657604 -105.16949973 165.59032325 -102.8984375 169.5 C-98.76662045 172.22717842 -98.76662045 172.22717842 -88.75 171.3125 C-88.75 160.7525 -88.75 150.1925 -88.75 139.3125 C-98.76662045 138.39782158 -98.76662045 138.39782158 -102.8984375 141.125 Z M89.25 139.3125 C89.25 149.8725 89.25 160.4325 89.25 171.3125 C99.26662045 172.22717842 99.26662045 172.22717842 103.3984375 169.5 C106.12964433 164.79817558 105.97994143 160.65751668 105.875 155.3125 C105.89433594 154.32765625 105.91367187 153.3428125 105.93359375 152.328125 C105.90339307 147.85842396 105.66949973 145.03467675 103.3984375 141.125 C99.26662045 138.39782158 99.26662045 138.39782158 89.25 139.3125 Z M-26.75 266.3125 C-26.82468636 270.86568701 -26.87885256 275.41850998 -26.91479492 279.97216797 C-26.9297933 281.51812968 -26.95019887 283.06404948 -26.97631836 284.60986328 C-27.16278769 295.93696082 -27.02919741 304.80158211 -18.8125 313.48046875 C-11.98626265 319.54392579 -5.19785823 321.16227591 3.84765625 320.7890625 C12.00473786 319.64650916 17.46334552 315.7914704 22.77734375 309.66796875 C28.23343988 300.94110942 27.6050369 292.22773405 27.4375 282.3125 C27.42242973 280.75912752 27.40874546 279.20574094 27.39648438 277.65234375 C27.36365497 273.87204385 27.31200254 270.09242937 27.25 266.3125 C26.15075195 266.54308105 25.05150391 266.77366211 23.91894531 267.01123047 C6.62507432 270.58216355 -9.54097252 269.92230919 -26.75 266.3125 Z M42.25 302.3125 C41.99605469 303.04855469 41.74210938 303.78460938 41.48046875 304.54296875 C41.13628906 305.51878906 40.79210937 306.49460937 40.4375 307.5 C39.93283203 308.94439453 39.93283203 308.94439453 39.41796875 310.41796875 C38.27104583 313.26034295 36.82818238 315.69425474 35.25 318.3125 C35.25 318.9725 35.25 319.6325 35.25 320.3125 C36.10325111 320.32129936 36.10325111 320.32129936 36.97373962 320.33027649 C42.92820454 320.39452569 48.88214464 320.47902429 54.83618164 320.57495117 C57.05420993 320.60807536 59.27231997 320.63614569 61.49047852 320.65893555 C64.69061924 320.69271202 67.89001913 320.74503953 71.08984375 320.80078125 C72.56226784 320.81036613 72.56226784 320.81036613 74.06443787 320.82014465 C81.55180842 320.97776127 88.23858351 321.87773774 94.1875 326.6875 C98.75347492 332.49874081 98.52513077 337.79623905 98.47363281 344.91430664 C98.47424461 346.51510323 98.47424461 346.51510323 98.47486877 348.14823914 C98.47506613 350.46230957 98.4710334 352.77638335 98.46326447 355.09044075 C98.45304646 358.7507925 98.45841663 362.4108034 98.46868896 366.07115173 C98.49668283 376.47693928 98.50907703 386.88253343 98.47998047 397.28833008 C98.4632927 403.65499837 98.47549943 410.02105567 98.50643158 416.38766289 C98.51255061 418.8153908 98.50762713 421.24317215 98.49155426 423.67085457 C98.47003902 427.06128709 98.48518682 430.44971248 98.50878906 433.84008789 C98.48574455 435.34960526 98.48574455 435.34960526 98.4622345 436.88961792 C98.50118719 439.50260995 98.58139449 441.786034 99.25 444.3125 C102.03516872 446.90602794 102.03516872 446.90602794 105.25 448.3125 C108.05992234 451.9315913 108.61572347 454.51573679 108.54296875 459.05078125 C108.53330078 460.11748047 108.52363281 461.18417969 108.51367188 462.28320312 C108.48853516 463.38599609 108.46339844 464.48878906 108.4375 465.625 C108.41719727 467.30819336 108.41719727 467.30819336 108.39648438 469.02539062 C108.3612138 471.78825229 108.31192235 474.55012829 108.25 477.3125 C112.89473982 477.38666067 117.53913499 477.44110615 122.18432617 477.47729492 C123.76446536 477.49238094 125.34456269 477.5128525 126.92456055 477.53881836 C129.19590585 477.57521126 131.46669759 477.59222762 133.73828125 477.60546875 C134.44463211 477.62095261 135.15098297 477.63643646 135.8787384 477.65238953 C139.64981002 477.69852217 139.64981002 477.69852217 142.9372282 476.07124805 C144.6041286 473.83806644 144.62480453 472.60281239 144.6242218 469.83195496 C144.63123611 468.9140921 144.63825043 467.99622925 144.64547729 467.05055237 C144.63783356 466.04540085 144.63018982 465.04024933 144.62231445 464.00463867 C144.62596512 462.94404236 144.62961578 461.88344604 144.63337708 460.79071045 C144.64150722 457.27046881 144.62784175 453.75068431 144.61328125 450.23046875 C144.61276252 447.77964783 144.61328073 445.32882649 144.61479187 442.87800598 C144.61470201 437.72891056 144.60425195 432.57997123 144.58618164 427.4309082 C144.56362548 420.86210833 144.56292516 414.29353925 144.56969929 407.72471142 C144.57306004 402.65517667 144.56636754 397.58569352 144.55657005 392.51616859 C144.55274407 390.09670597 144.55155894 387.67723757 144.5531559 385.25777245 C144.55578548 361.40379282 143.63214328 341.36647511 126.4375 323.0625 C122.15594659 318.97068788 117.49824935 316.02153472 112.25 313.3125 C111.52683594 312.93222656 110.80367188 312.55195313 110.05859375 312.16015625 C96.48474807 305.90438389 79.62714099 305.82860481 64.9375 304.125 C64.15875519 304.03428223 63.38001038 303.94356445 62.57766724 303.85009766 C60.32698179 303.58977741 58.07575472 303.33487914 55.82421875 303.08203125 C55.14984772 303.00406815 54.47547668 302.92610504 53.78067017 302.84577942 C49.917391 302.4198144 46.13569587 302.23853323 42.25 302.3125 Z M-56.51953125 303.265625 C-57.47333176 303.36711853 -58.42713226 303.46861206 -59.40983582 303.57318115 C-61.43152343 303.79013823 -63.45303012 304.00878688 -65.47436523 304.22900391 C-67.51289637 304.44915044 -69.55196075 304.66442076 -71.59155273 304.87451172 C-95.84153591 307.37271977 -116.18127177 310.90973201 -132.5625 330.6875 C-142.57489977 344.21840818 -143.89271308 359.21923601 -143.91113281 375.49780273 C-143.91609772 376.56733688 -143.92106262 377.63687103 -143.92617798 378.73881531 C-143.94066643 382.24124818 -143.94757477 385.74363597 -143.953125 389.24609375 C-143.95888199 391.69084168 -143.96463965 394.1355896 -143.97039795 396.58033752 C-143.98086608 401.68661711 -143.98673789 406.79288113 -143.99023438 411.89916992 C-143.9957483 418.45205987 -144.01985527 425.0047451 -144.04820633 431.55757046 C-144.06678266 436.59746417 -144.07203536 441.63730768 -144.07357025 446.67723274 C-144.07660236 449.09463701 -144.08464954 451.51204029 -144.09775543 453.92941093 C-144.11473086 457.29742294 -144.11295787 460.66492207 -144.10644531 464.03295898 C-144.1156601 465.03504395 -144.12487488 466.03712891 -144.1343689 467.06958008 C-144.12879974 467.98480942 -144.12323059 468.90003876 -144.11749268 469.84300232 C-144.11895924 470.63842658 -144.1204258 471.43385084 -144.1219368 472.25337887 C-143.64969524 474.86780849 -142.87347994 475.74982901 -140.75 477.3125 C-138.16225229 477.57403069 -135.82100347 477.66208438 -133.23828125 477.60546875 C-132.14594429 477.59910149 -132.14594429 477.59910149 -131.03153992 477.59260559 C-128.70814873 477.57582733 -126.3856285 477.53817855 -124.0625 477.5 C-122.48634066 477.48495197 -120.91016771 477.47126377 -119.33398438 477.45898438 C-115.47232123 477.42592685 -111.61130822 477.37415194 -107.75 477.3125 C-107.77356567 476.26122925 -107.77356567 476.26122925 -107.79760742 475.1887207 C-107.86012412 472.00089649 -107.89904381 468.81320149 -107.9375 465.625 C-107.96263672 464.52220703 -107.98777344 463.41941406 -108.01367188 462.28320312 C-108.02333984 461.21650391 -108.03300781 460.14980469 -108.04296875 459.05078125 C-108.0586792 458.07149658 -108.07438965 457.09221191 -108.09057617 456.08325195 C-107.67412367 452.69520937 -106.84379147 451.00923733 -104.75 448.3125 C-103.71399658 447.72146484 -102.67799316 447.13042969 -101.6105957 446.52148438 C-98.35862691 444.50977535 -98.35862691 444.50977535 -97.99291992 440.52539062 C-97.95881645 439.00688766 -97.95653589 437.48744731 -97.98046875 435.96875 C-97.96913406 435.16264282 -97.95779938 434.35653564 -97.94612122 433.52600098 C-97.91542203 430.95417797 -97.92522973 428.38444394 -97.9375 425.8125 C-97.92330872 423.24123201 -97.90087853 420.67017721 -97.87532043 418.09899902 C-97.86233238 416.50081959 -97.8575176 414.90254759 -97.86186218 413.30432129 C-97.85907108 409.79753472 -97.69339021 406.68590014 -96.75 403.3125 C-89.41666667 402.09027778 -89.41666667 402.09027778 -86.3125 403.125 C-84.75 404.3125 -84.75 404.3125 -83.75 406.3125 C-83.42 418.8525 -83.09 431.3925 -82.75 444.3125 C-27.97 444.3125 26.81 444.3125 83.25 444.3125 C83.29125 426.86375 83.3325 409.415 83.375 391.4375 C83.39320801 385.9217627 83.41141602 380.40602539 83.43017578 374.72314453 C83.43686338 369.79210025 83.43686338 369.79210025 83.44088745 364.86105347 C83.44396481 362.65946648 83.4510116 360.45788293 83.46115112 358.25631714 C83.47571999 354.92749141 83.47781438 351.59887221 83.47705078 348.27001953 C83.48784511 346.79124423 83.48784511 346.79124423 83.4988575 345.28259468 C83.49472501 343.9434139 83.49472501 343.9434139 83.49050903 342.57717896 C83.49235262 341.79734209 83.49419621 341.01750523 83.49609566 340.21403694 C83.41546297 338.07096167 83.41546297 338.07096167 81.25 336.3125 C78.34448465 336.00672861 78.34448465 336.00672861 74.87280273 336.05853271 C74.21096953 336.05541273 73.54913633 336.05229275 72.86724758 336.04907823 C70.63927361 336.04107138 68.41156998 336.04743215 66.18359375 336.05371094 C64.59050333 336.05100226 62.99741417 336.04744203 61.40432739 336.04309082 C57.06970797 336.03394984 52.73518343 336.03751808 48.40056229 336.04384899 C43.87177518 336.04890017 39.34299639 336.04422001 34.81420898 336.04107666 C27.20783016 336.03743443 19.60149013 336.04224283 11.99511719 336.05175781 C3.19164261 336.06264286 -5.61173934 336.05911746 -14.41521168 336.048105 C-21.96342419 336.03903942 -29.51160875 336.03774327 -37.05982494 336.04298234 C-41.57254238 336.04610607 -46.08521624 336.04650039 -50.59793091 336.03990936 C-54.8397774 336.03414711 -59.08150406 336.03811213 -63.32333755 336.04969788 C-64.88345261 336.05235049 -66.44357769 336.05156918 -68.00368881 336.04717255 C-70.1268646 336.04173916 -72.24965196 336.04852386 -74.37280273 336.05853271 C-76.15810646 336.05966379 -76.15810646 336.05966379 -77.97947693 336.06081772 C-80.89161761 336.02729437 -80.89161761 336.02729437 -82.75 338.3125 C-82.95948809 341.28700455 -83.05114573 344.175923 -83.05859375 347.15234375 C-83.08375111 348.9550814 -83.10914918 350.75781569 -83.13476562 352.56054688 C-83.16353879 355.40908973 -83.18754985 358.25757451 -83.20629883 361.10620117 C-83.22791185 363.85105502 -83.26734624 366.59522517 -83.30859375 369.33984375 C-83.30870956 370.19303696 -83.30882538 371.04623016 -83.3089447 371.92527771 C-83.32228348 372.71942581 -83.33562225 373.51357391 -83.34936523 374.33178711 C-83.35697121 375.3786393 -83.35697121 375.3786393 -83.36473083 376.44664001 C-83.86672595 378.87780422 -84.83642053 379.77988382 -86.75 381.3125 C-88.6875 381.74609375 -88.6875 381.74609375 -90.75 381.75 C-91.430625 381.76933594 -92.11125 381.78867187 -92.8125 381.80859375 C-94.75 381.3125 -94.75 381.3125 -96.34399414 379.8762207 C-98.49414412 375.95562252 -98.19804026 372.20040884 -98.18359375 367.796875 C-98.1888356 366.86707825 -98.19407745 365.93728149 -98.19947815 364.97930908 C-98.20589707 363.01242062 -98.20456303 361.04549377 -98.19604492 359.07861328 C-98.18756901 356.08685777 -98.21624269 353.09703403 -98.24804688 350.10546875 C-98.24966001 348.19010474 -98.24907921 346.27473737 -98.24609375 344.359375 C-98.25732773 343.47264099 -98.26856171 342.58590698 -98.28013611 341.67230225 C-98.21560125 335.84289558 -97.24382905 331.09925266 -93.75 326.3125 C-88.71864634 322.17861986 -83.10651652 321.22409793 -76.77612305 321.10717773 C-75.81550461 321.08723251 -74.85488617 321.06728729 -73.86515808 321.04673767 C-72.8410231 321.03002518 -71.81688812 321.01331268 -70.76171875 320.99609375 C-69.70338333 320.97531265 -68.64504791 320.95453156 -67.55464172 320.93312073 C-64.18232559 320.86786897 -60.80993326 320.80885363 -57.4375 320.75 C-55.14777866 320.7067916 -52.85806495 320.66317657 -50.56835938 320.61914062 C-44.96231955 320.51221259 -39.35620434 320.41040137 -33.75 320.3125 C-34.49056641 318.86617188 -34.49056641 318.86617188 -35.24609375 317.390625 C-35.89344237 316.11469148 -36.54056599 314.83864379 -37.1875 313.5625 C-37.51298828 312.92828125 -37.83847656 312.2940625 -38.17382812 311.640625 C-39.72063665 308.57890092 -41.1415078 305.70634379 -41.75 302.3125 C-46.71569418 302.15593851 -51.59020976 302.7401936 -56.51953125 303.265625 Z M-92.75 460.3125 C-93.84054551 470.48671992 -93.84054551 470.48671992 -90.4375 474.4375 C-86.18867931 477.40179351 -83.04850498 477.44080292 -77.97575378 477.45294189 C-77.28322 477.45591302 -76.59068622 477.45888414 -75.87716657 477.4619453 C-73.55115551 477.47063311 -71.22519592 477.47214061 -68.89916992 477.47363281 C-67.23360585 477.47826093 -65.56804285 477.48328558 -63.90248108 477.48867798 C-59.37347509 477.5018046 -54.84448392 477.50824745 -50.31546187 477.51268864 C-47.4863253 477.51561893 -44.65719278 477.51972366 -41.82805824 477.52419281 C-32.97753359 477.53786842 -24.1270182 477.54753477 -15.27648371 477.5513947 C-5.05763394 477.55587578 5.16108211 477.57342575 15.37989122 477.6023953 C23.27722282 477.62400698 31.17451679 477.63409871 39.07187766 477.63543582 C43.7893069 477.63648421 48.50661043 477.64239935 53.22400856 477.66025543 C57.66206881 477.67672724 62.09990875 477.67889597 66.53798866 477.67011642 C68.1657724 477.66934557 69.79356793 477.67369514 71.42132187 477.68357468 C73.64607775 477.69628444 75.87005217 477.69042327 78.09480286 477.67999268 C79.3390141 477.68145924 80.58322535 477.6829258 81.86513996 477.6844368 C85.64353639 477.26925725 88.03244558 476.31254519 91.25 474.3125 C94.26695036 470.38799967 94.26695036 470.38799967 93.25 460.3125 C31.87 460.3125 -29.51 460.3125 -92.75 460.3125 Z " fill="#FFBC5E" transform="translate(158.75,19.6875)"/>
<path d="M0 0 C1.07032047 -0.00913666 1.07032047 -0.00913666 2.16226357 -0.01845789 C4.53576505 -0.03500939 6.90872541 -0.03032351 9.28227234 -0.0255127 C10.99120131 -0.03285768 12.70012532 -0.04144516 14.40904236 -0.05117798 C19.039361 -0.0733593 23.66950149 -0.0763263 28.29986596 -0.07443047 C32.17143201 -0.07431059 36.04296056 -0.08288181 39.91451615 -0.09120798 C49.05258934 -0.11043048 58.19057119 -0.11333032 67.32865906 -0.10656738 C76.74057228 -0.09992964 86.1520933 -0.12278288 95.56392699 -0.15988111 C103.65759861 -0.19062039 111.75114434 -0.20193349 119.84487313 -0.1980443 C124.6731032 -0.19598091 129.50102811 -0.2013924 134.32920265 -0.22593689 C138.8725315 -0.24827101 143.41522485 -0.2462711 147.95855713 -0.22600937 C149.62013942 -0.2226109 151.28176505 -0.22763801 152.9432888 -0.24199295 C163.11634017 -0.32377679 171.88189677 0.07097673 179.71234608 7.38419342 C187.36833176 15.37162575 188.02340915 22.67800625 187.97001648 33.36291504 C187.97790192 35.30564049 187.97790192 35.30564049 187.98594666 37.28761292 C187.99957146 40.8248993 187.99434145 44.36192187 187.9848094 47.8992126 C187.97718599 51.61104309 187.98426598 55.3228518 187.9889679 59.03468323 C187.99441835 65.26783276 187.98725326 71.50087549 187.97294617 77.73400879 C187.95662812 84.92600223 187.96190476 92.11774038 187.97842538 99.30972761 C187.99206913 105.49849972 187.99394562 111.68719527 187.98610938 117.87597758 C187.98144776 121.5661182 187.98076598 125.25613911 187.99071884 128.9462719 C188.00104798 133.06316956 187.98670412 137.17963199 187.97001648 141.29650879 C187.97608917 142.50974823 187.98216187 143.72298767 187.98841858 144.97299194 C187.9209317 153.9748178 186.63319405 160.97298461 180.39433289 167.78894043 C171.62305527 175.55832642 162.77919095 175.62259172 151.58183289 175.70690918 C150.29792664 175.73591309 149.01402039 175.76491699 147.69120789 175.7947998 C146.45886414 175.80317871 145.22652039 175.81155762 143.95683289 175.82019043 C142.83019226 175.83477295 141.70355164 175.84935547 140.54277039 175.86437988 C136.92909202 175.29080379 135.80396136 174.23971397 133.58183289 171.39440918 C132.64433289 168.95690918 132.64433289 168.95690918 132.58183289 166.39440918 C134.20338917 162.90806317 135.3463658 161.55138724 138.58183289 159.39440918 C141.13798523 159.12316895 141.13798523 159.12316895 144.16777039 159.08581543 C145.26347351 159.06067871 146.35917664 159.03554199 147.48808289 159.00964355 C149.79271593 158.9746069 152.09740934 158.94333089 154.40214539 158.91589355 C155.50042664 158.88946777 156.59870789 158.86304199 157.73027039 158.83581543 C158.73235535 158.82236084 159.73444031 158.80890625 160.76689148 158.79504395 C164.07860897 158.32370584 165.92839399 157.41731942 168.58183289 155.39440918 C170.57377286 152.24841293 170.83602226 149.77507617 170.84925842 146.08766174 C170.85778839 145.01237717 170.86631836 143.93709259 170.87510681 142.82922363 C170.87420044 141.65456543 170.87329407 140.47990723 170.87236023 139.26965332 C170.87907745 138.02864365 170.88579468 136.78763397 170.89271545 135.50901794 C170.90845996 132.10812625 170.91507051 128.70747875 170.91634703 125.30656743 C170.91776934 123.18113297 170.9220404 121.05572405 170.92734146 118.93029594 C170.94583858 111.51345064 170.95401233 104.09667718 170.95243835 96.67980957 C170.95123649 89.76895428 170.97234818 82.85841107 171.00392568 75.94763476 C171.03008338 70.01120443 171.0408059 64.07487609 171.03952754 58.13838857 C171.03901782 54.59410624 171.04470616 51.0501014 171.06588364 47.50587654 C171.08885697 43.55331359 171.07974815 39.60117843 171.06767273 35.64855957 C171.07891174 34.4759256 171.09015076 33.30329163 171.10173035 32.09512329 C171.05887333 25.94797385 171.05887333 25.94797385 168.9889679 20.25352478 C164.18693525 16.54474494 158.65427658 16.14428938 152.75090027 16.14044189 C152.10057343 16.13732191 151.45024659 16.13420193 150.78021288 16.13098741 C148.62089254 16.12306815 146.46185799 16.129307 144.30253601 16.13562012 C142.74637692 16.13290755 141.19021911 16.12934512 139.63406372 16.125 C135.42130047 16.11590535 131.2086355 16.11940817 126.99587059 16.12575817 C122.58022681 16.13083331 118.16459126 16.12612251 113.74894714 16.12298584 C106.33466588 16.11935061 98.9204245 16.12413367 91.50614929 16.13366699 C82.94294872 16.14455069 74.37984341 16.1410248 65.81664515 16.13001418 C58.45508845 16.12092869 51.09356037 16.11966221 43.73199987 16.12489152 C39.33936344 16.12800427 34.94677172 16.12843967 30.55413818 16.12181854 C26.42383442 16.11602734 22.29365308 16.12007439 18.1633625 16.13160706 C16.65049505 16.13424416 15.13761724 16.13350482 13.62475395 16.12908173 C11.55395358 16.12358712 9.48354139 16.13050723 7.4127655 16.14044189 C5.67730091 16.14157297 5.67730091 16.14157297 3.90677643 16.1427269 C-1.0865438 16.52069729 -5.14750381 17.15718438 -8.79316711 20.70690918 C-11.28220484 24.82339464 -11.54225964 28.71880879 -11.55860901 33.45954895 C-11.56431915 34.45614532 -11.5700293 35.4527417 -11.57591248 36.47953796 C-11.57703033 37.56173111 -11.57814819 38.64392426 -11.57929993 39.75891113 C-11.58426483 40.90746582 -11.58922974 42.05602051 -11.59434509 43.23937988 C-11.60894431 47.03715617 -11.61576475 50.8348907 -11.62129211 54.63269043 C-11.62704506 57.27438864 -11.63280278 59.91608684 -11.63856506 62.55778503 C-11.64812743 67.38912615 -11.65402985 72.22045829 -11.65706182 77.0518077 C-11.66154056 84.14809499 -11.67908527 91.24418947 -11.70806241 98.34041816 C-11.73233768 104.5004317 -11.74000871 110.66036601 -11.74173737 116.82042503 C-11.74476159 119.43465411 -11.75278229 122.04888242 -11.76592255 124.66308022 C-11.78300609 128.32277606 -11.78109687 131.98200392 -11.77461243 135.64172363 C-11.78382721 136.71784409 -11.79304199 137.79396454 -11.80253601 138.9026947 C-11.76817814 145.10320254 -11.10624082 149.77289036 -8.41816711 155.39440918 C-4.77985632 158.53432123 -1.62513406 158.76243814 3.08183289 158.89440918 C7.83606088 159.02770529 10.79431148 159.41489234 14.58183289 162.39440918 C18.23709043 166.96726589 19.06861781 169.94392125 18.97245789 175.76159668 C18.9667981 176.44118439 18.96113831 177.12077209 18.95530701 177.82095337 C18.93308639 179.97118467 18.88292487 182.11968992 18.83183289 184.26940918 C18.81174903 185.73553078 18.79350157 187.20167876 18.77714539 188.66784668 C18.73327099 192.24391926 18.66434732 195.81899549 18.58183289 199.39440918 C26.76416277 193.8000302 34.92522071 188.17839755 43.01933289 182.45690918 C43.71582947 181.96480957 44.41232605 181.47270996 45.12992859 180.96569824 C48.82138968 178.35477843 52.50676354 175.73554704 56.18730164 173.10925293 C57.32244202 172.30185669 57.32244202 172.30185669 58.48051453 171.47814941 C59.91785487 170.45566594 61.35337665 169.43061895 62.78666687 168.40246582 C72.41285034 161.56271594 79.50813828 159.16717739 91.35087585 159.09924316 C92.75136919 159.0877158 94.15181834 159.06725148 95.55204773 159.03771973 C97.58050746 158.99495244 99.60766529 158.97886454 101.63652039 158.96862793 C102.848078 158.95404541 104.05963562 158.93946289 105.3079071 158.92443848 C109.1919101 159.48198551 110.83009752 160.65160906 113.58183289 163.39440918 C114.21073914 165.39440918 114.21073914 165.39440918 114.14433289 167.39440918 C114.14562195 168.05440918 114.14691101 168.71440918 114.14823914 169.39440918 C113.32242635 172.31038259 111.92319911 173.5007581 109.58183289 175.39440918 C106.8589325 175.73400879 106.8589325 175.73400879 103.73417664 175.54675293 C87.14617612 175.03221666 77.4548096 176.8090519 64.76005554 187.58044434 C61.20566635 190.54044341 57.41712356 193.1604078 53.64433289 195.83190918 C52.17311093 196.89800493 50.70307028 197.96573269 49.23417664 199.03503418 C44.08952486 202.76165869 38.90451855 206.42972338 33.70683289 210.08190918 C32.8561322 210.68253174 32.00543152 211.2831543 31.12895203 211.90197754 C30.33223083 212.46022217 29.53550964 213.0184668 28.71464539 213.59362793 C28.01226746 214.08693604 27.30988953 214.58024414 26.58622742 215.08850098 C21.96274601 218.1008033 18.14956613 219.2358017 12.58183289 218.39440918 C9.00049749 217.0798317 6.27938048 215.28627722 3.90092468 212.24523926 C2.21767765 208.60739443 2.20424116 205.3921342 2.28886414 201.46862793 C2.29310898 200.72103714 2.29735382 199.97344635 2.30172729 199.20320129 C2.31844232 196.82906186 2.35607942 194.45578951 2.39433289 192.08190918 C2.40938908 190.46668712 2.42307585 188.85145167 2.43534851 187.23620605 C2.46832209 183.2886093 2.5200532 179.34165596 2.58183289 175.39440918 C1.31798767 175.40810547 0.05414246 175.42180176 -1.2480011 175.43591309 C-8.67578752 175.516408 -15.4807257 172.27112752 -20.88301086 167.22644043 C-28.54055802 158.08804445 -28.56813486 147.97103431 -28.56343079 136.65100098 C-28.5667894 135.48585968 -28.57014801 134.32071838 -28.5736084 133.12026978 C-28.58308792 129.27804491 -28.58506 125.43586376 -28.58613586 121.59362793 C-28.58853748 119.59225368 -28.59094097 117.59087942 -28.59359628 115.58950549 C-28.60172199 109.29929114 -28.60418225 103.00909108 -28.60346985 96.71887207 C-28.60286959 90.25178621 -28.61341547 83.7847839 -28.62921351 77.31771916 C-28.64233353 71.74633861 -28.64765188 66.17498522 -28.64701444 60.60358936 C-28.64676075 57.28451193 -28.65047484 53.96552506 -28.66019249 50.64645958 C-28.67002966 46.93957024 -28.66709949 43.23289402 -28.66108704 39.52600098 C-28.66670654 38.44151169 -28.67232605 37.3570224 -28.67811584 36.2396698 C-28.63331859 25.32742319 -27.5510325 15.84928659 -19.78144836 7.67175293 C-13.81151959 2.21161582 -8.07796409 0.02369691 0 0 Z " fill="#FFBC5E" transform="translate(324.4181671142578,-0.3944091796875)"/>
<path d="M0 0 C2.02817196 -0.00967986 4.05531899 -0.04069095 6.08325195 -0.07226562 C7.36651367 -0.07742187 8.64977539 -0.08257812 9.97192383 -0.08789062 C11.73596558 -0.10190918 11.73596558 -0.10190918 13.53564453 -0.11621094 C18.46487688 0.43319583 20.94818841 2.44314385 24.37036133 5.91601562 C27.14461585 9.43079523 28.3467954 13.16120425 29.54614258 17.42773438 C29.76206055 18.13865234 29.97797852 18.84957031 30.20043945 19.58203125 C31.08276796 22.55953982 31.73364258 25.11989701 31.73364258 28.24023438 C32.57926758 28.48773438 33.42489258 28.73523438 34.29614258 28.99023438 C37.73364258 30.24023438 37.73364258 30.24023438 41.04614258 32.42773438 C46.60204763 35.71243428 52.28293802 33.61065141 58.17114258 32.11523438 C64.28506994 30.70432806 69.96883795 30.87829832 75.63598633 33.66992188 C80.06985774 36.82777251 82.45964893 41.60286032 85.10864258 46.24023438 C85.65391602 47.12324219 86.19918945 48.00625 86.76098633 48.91601562 C90.61918988 55.59776664 92.00419091 61.54007087 90.73364258 69.24023438 C88.65728488 73.38279751 85.74111397 76.32450021 82.33129883 79.42382812 C77.42413497 84.14493838 74.99718692 87.64020222 74.42114258 94.55273438 C74.87775384 102.8985736 78.97386546 107.03313143 84.81567383 112.43554688 C88.8874671 116.20948234 91.1960188 119.78504193 91.54614258 125.42773438 C91.34670656 135.44939419 84.67968006 145.86680708 78.10083008 153.15820312 C74.54308157 156.28737797 71.22509198 158.21131208 66.37817383 158.26757812 C62.16399838 157.90822983 58.14719819 157.12827196 54.04614258 156.11523438 C46.73709205 154.4383769 41.87370657 156.40126262 35.65161133 160.18164062 C33.73364258 161.24023438 33.73364258 161.24023438 31.73364258 161.24023438 C31.48614258 162.47773438 31.23864258 163.71523438 30.98364258 164.99023438 C27.02030684 182.29224489 27.02030684 182.29224489 20.31958008 187.25195312 C15.46792069 190.27527782 10.10526379 189.50233666 4.5222168 189.53540039 C2.50475174 189.55255488 0.48895164 189.59643308 -1.52807617 189.640625 C-2.80811523 189.64900391 -4.0881543 189.65738281 -5.40698242 189.66601562 C-7.16316895 189.6878894 -7.16316895 189.6878894 -8.95483398 189.71020508 C-14.1516275 188.97267725 -17.22796206 186.52902294 -20.46948242 182.50585938 C-22.53726404 178.74789104 -23.82173678 175.09251658 -25.01635742 170.99023438 C-25.23678711 170.2709375 -25.4572168 169.55164063 -25.68432617 168.81054688 C-27.26635742 163.56331279 -27.26635742 163.56331279 -27.26635742 161.24023438 C-28.56573242 160.86898437 -28.56573242 160.86898437 -29.89135742 160.49023438 C-33.26635742 159.24023438 -33.26635742 159.24023438 -36.01635742 157.05273438 C-41.78755869 153.83417982 -47.62389384 155.79972153 -53.76635742 157.36523438 C-58.62774634 158.4818078 -63.49810813 158.87339621 -68.26635742 157.24023438 C-74.42334426 153.29496302 -77.77992597 147.79822427 -81.20385742 141.49023438 C-81.69692383 140.6471875 -82.18999023 139.80414063 -82.69799805 138.93554688 C-85.98338316 132.97537527 -87.29594507 128.03782655 -86.26635742 121.24023438 C-85.27026367 118.61132812 -85.27026367 118.61132812 -83.82885742 116.67773438 C-83.02254883 115.56205078 -83.02254883 115.56205078 -82.19995117 114.42382812 C-80.26635742 112.24023438 -80.26635742 112.24023438 -77.86401367 110.27539062 C-73.91102212 107.02182254 -71.23167764 104.37960492 -70.34057617 99.24414062 C-69.78733029 93.26762039 -69.89226476 88.24218961 -73.35229492 83.20117188 C-75.89260201 80.73715029 -78.54308959 78.4978442 -81.26635742 76.24023438 C-85.50475532 71.40566623 -86.77619863 67.34247649 -86.64526367 60.96875 C-85.96632794 56.07971278 -83.66717296 52.20202095 -81.20385742 47.99023438 C-80.73786133 47.13171875 -80.27186523 46.27320313 -79.79174805 45.38867188 C-76.39181151 39.37517869 -72.54888064 33.87870385 -65.88745117 31.33007812 C-59.44087061 30.88031669 -53.72457441 31.9858308 -47.46557617 33.54882812 C-43.20033926 34.47061925 -40.62180795 34.92304004 -36.66088867 32.92773438 C-35.3827832 32.09242188 -35.3827832 32.09242188 -34.07885742 31.24023438 C-29.44691298 28.24023438 -29.44691298 28.24023438 -27.26635742 28.24023438 C-27.09620117 27.49 -26.92604492 26.73976562 -26.75073242 25.96679688 C-22.15481194 6.55636677 -22.15481194 6.55636677 -14.26635742 1.24023438 C-10.07006908 -0.8579098 -4.61600893 0.0133491 0 0 Z M-7.26635742 16.24023438 C-7.93731445 18.44453125 -7.93731445 18.44453125 -8.62182617 20.69335938 C-9.23161806 22.62593058 -9.84234422 24.55820715 -10.45385742 26.49023438 C-10.74583008 27.45832031 -11.03780273 28.42640625 -11.33862305 29.42382812 C-13.06239397 34.79902779 -14.22254142 38.24276658 -19.26635742 41.24023438 C-19.8287915 41.61374023 -20.39122559 41.98724609 -20.97070312 42.37207031 C-32.9699734 50.28243231 -40.82985236 51.6400811 -55.01635742 48.74023438 C-57.07885742 48.24523437 -59.14135742 47.75023437 -61.26635742 47.24023438 C-64.23635742 52.19023437 -67.20635742 57.14023437 -70.26635742 62.24023438 C-67.01386067 67.1189795 -64.37571882 70.21430498 -60.16870117 74.01757812 C-54.77596635 80.31832989 -54.77259998 86.72497717 -54.82885742 94.67773438 C-54.80887695 95.67611328 -54.78889648 96.67449219 -54.76831055 97.703125 C-54.77351654 105.62143863 -56.31505129 110.87594684 -61.55541992 116.84960938 C-62.3262793 117.55601562 -63.09713867 118.26242187 -63.89135742 118.99023438 C-68.05312947 122.5198971 -68.05312947 122.5198971 -70.26635742 127.24023438 C-69.13640331 130.03300516 -67.53629971 132.47527925 -65.89135742 134.99023438 C-65.45307617 135.68761719 -65.01479492 136.385 -64.56323242 137.10351562 C-63.47856137 138.82484143 -62.37427881 140.53378074 -61.26635742 142.24023438 C-60.39495117 142.02367187 -59.52354492 141.80710937 -58.62573242 141.58398438 C-54.85305402 140.70205955 -51.07588356 139.94555864 -47.26635742 139.24023438 C-46.29827148 139.046875 -45.33018555 138.85351562 -44.33276367 138.65429688 C-34.15860806 137.58637132 -24.0966896 144.18911029 -16.26635742 150.24023438 C-13.91027815 152.93767344 -12.69823055 155.37540721 -11.66088867 158.78710938 C-11.39985352 159.63144531 -11.13881836 160.47578125 -10.86987305 161.34570312 C-10.60883789 162.21839844 -10.34780273 163.09109375 -10.07885742 163.99023438 C-9.8062207 164.87839844 -9.53358398 165.7665625 -9.25268555 166.68164062 C-8.58339236 168.86564996 -7.92390638 171.05266049 -7.26635742 173.24023438 C-0.99635742 173.24023438 5.27364258 173.24023438 11.73364258 173.24023438 C12.18094727 171.85449219 12.62825195 170.46875 13.08911133 169.04101562 C13.69900722 167.21132796 14.30972786 165.38191506 14.92114258 163.55273438 C15.21311523 162.64072266 15.50508789 161.72871094 15.8059082 160.7890625 C18.44527176 152.98449284 21.81074354 148.9309381 29.23364258 145.11523438 C31.98589582 143.68499041 34.63771302 142.30433825 37.21801758 140.58007812 C43.49358031 137.23765884 51.99568387 138.93775192 58.60083008 140.80273438 C61.55587592 141.40889762 63.72044702 141.69240861 66.73364258 141.24023438 C68.60392001 139.10805648 69.81887131 137.41445964 71.17114258 134.99023438 C71.53401367 134.40371094 71.89688477 133.8171875 72.27075195 133.21289062 C73.70175514 130.77772268 74.75562987 128.89522433 74.65942383 126.02929688 C73.54142324 123.86877253 72.2685928 122.51825349 70.48364258 120.86523438 C63.83242695 114.44619671 59.82296936 109.19710007 59.43286133 99.68164062 C59.41842334 98.05539794 59.4146839 96.42902832 59.42114258 94.80273438 C59.4050293 93.99513672 59.38891602 93.18753906 59.37231445 92.35546875 C59.36549472 83.89218399 61.33890172 78.15598323 67.31176758 72.11132812 C67.86348633 71.57636719 68.41520508 71.04140625 68.98364258 70.49023438 C71.0676557 68.46779437 72.88168963 66.49842216 74.73364258 64.24023438 C74.24891259 60.3845347 72.23949982 57.3697745 70.29614258 54.05273438 C69.67868164 52.98667969 69.0612207 51.920625 68.42504883 50.82226562 C66.98956665 48.15855813 66.98956665 48.15855813 64.73364258 47.24023438 C62.76194861 47.66105861 60.80515245 48.15259682 58.85864258 48.67773438 C47.08362341 51.36439268 40.36005643 51.2009037 29.73364258 45.24023438 C28.90783691 44.78374512 28.08203125 44.32725586 27.23120117 43.85693359 C21.6467325 40.49292046 18.9385114 37.35399597 16.73364258 31.24023438 C16.48163086 30.56605469 16.22961914 29.891875 15.9699707 29.19726562 C15.26509809 27.22209413 14.61599162 25.23980006 13.98364258 23.24023438 C13.24114258 20.93023437 12.49864258 18.62023437 11.73364258 16.24023438 C5.46364258 16.24023438 -0.80635742 16.24023438 -7.26635742 16.24023438 Z " fill="#FFBC5E" transform="translate(421.266357421875,209.759765625)"/>
<path d="M0 0 C6.84135445 4.11571523 10.55694918 10.51654959 13 18 C14.61247509 28.22677156 12.92351608 36.50218424 7 45 C1.88713176 51.15783401 -5.31106014 54.4354839 -13.1796875 55.3828125 C-21.85656813 55.68905535 -28.3983353 53.82374879 -35.75 49.3125 C-42.39482011 42.48310155 -45.94139825 35.31633861 -46.375 25.75 C-46.23627961 18.55635692 -43.99405892 12.32343153 -40.3125 6.1875 C-28.93292191 -4.57696576 -14.08006332 -7.91070695 0 0 Z M-27.25 17.5625 C-30.14463986 21.59431981 -30.41685149 23.99778207 -30 29 C-27.42422676 33.61862787 -25.0807921 37.30640263 -20 39 C-14.76496164 39.39509723 -11.40071276 38.93380851 -7 36 C-3.28809379 31.89736682 -2.35064795 28.55914192 -2.61328125 23.1796875 C-3.41354991 18.66908234 -5.82642898 15.97797585 -9.25 13.125 C-16.43740538 10.1846978 -22.15204632 11.7564972 -27.25 17.5625 Z " fill="#FFBC5E" transform="translate(440,279)"/>
<path d="M0 0 C2.15618637 1.76762825 4.07008844 3.48482471 6.01953125 5.453125 C6.8355909 6.25988678 6.8355909 6.25988678 7.6681366 7.08294678 C8.81003825 8.2177745 9.94687539 9.35771873 11.07885742 10.50244141 C12.80917329 12.24664659 14.56217358 13.96548444 16.31835938 15.68359375 C17.42853577 16.79281906 18.53730922 17.90345065 19.64453125 19.015625 C20.16739212 19.52522766 20.69025299 20.03483032 21.22895813 20.55987549 C24.47057059 23.88593905 26.03552299 26.30159676 26 31 C24.13042782 35.26836951 21.02047239 38.22438365 17.74609375 41.484375 C17.24457291 41.98543762 16.74305206 42.48650024 16.22633362 43.00274658 C15.1722202 44.05385466 14.11569323 45.1025473 13.05688477 46.14892578 C11.43377702 47.75368088 9.81891048 49.36639132 8.20507812 50.98046875 C-0.7406103 59.88338984 -0.7406103 59.88338984 -5.375 60.3125 C-9 60 -9 60 -11.4375 58.4375 C-13.70159958 54.90550465 -13.7587407 53.13858566 -13 49 C-11.0426924 45.96102241 -8.56180772 43.5355776 -6 41 C-5.027849 40.01641193 -4.05654411 39.03198711 -3.0859375 38.046875 C-0.41083729 35.34370675 2.28887023 32.6670065 5 30 C0.84443819 24.94593833 -3.62247991 20.29814817 -8.30395508 15.7331543 C-11.51755144 12.57771246 -12.89013829 11.18650648 -13.3125 6.625 C-13 3 -13 3 -11.1875 0.625 C-6.94324862 -2.52787246 -4.67620912 -2.05794733 0 0 Z " fill="#FFBC5E" transform="translate(447,58)"/>
<path d="M0 0 C2.6209402 3.9314103 2.81751502 5.31786854 2 10 C-0.64457038 13.68655548 -3.78293462 16.81191719 -7 20 C-7.85851562 20.87140625 -8.71703125 21.7428125 -9.6015625 22.640625 C-11.71832749 24.77754966 -13.85042589 26.89616151 -16 29 C-11.84443819 34.05406167 -7.37752009 38.70185183 -2.69604492 43.2668457 C0.51755144 46.42228754 1.89013829 47.81349352 2.3125 52.375 C2 56 2 56 0.4375 58.4375 C-3.09449535 60.70159958 -4.86141434 60.7587407 -9 60 C-10.7668457 58.7355957 -10.7668457 58.7355957 -12.61328125 57.05078125 C-13.31050293 56.4163208 -14.00772461 55.78186035 -14.72607422 55.12817383 C-15.47646973 54.42587646 -16.22686523 53.7235791 -17 53 C-17.7955127 52.25967529 -18.59102539 51.51935059 -19.41064453 50.7565918 C-21.94673225 48.36437972 -24.44457168 45.93710213 -26.9375 43.5 C-27.79923828 42.68402344 -28.66097656 41.86804688 -29.54882812 41.02734375 C-33.01643796 37.62258263 -35.61559491 34.91857841 -37.50390625 30.40625 C-36.72490908 25.14047068 -33.71152201 22.63615705 -30 19 C-29.20529297 18.17773926 -28.41058594 17.35547852 -27.59179688 16.50830078 C-25.00303564 13.83361174 -22.38109166 11.19551497 -19.75 8.5625 C-18.8528125 7.65306641 -17.955625 6.74363281 -17.03125 5.80664062 C-16.17015625 4.94361328 -15.3090625 4.08058594 -14.421875 3.19140625 C-13.64424805 2.40967041 -12.86662109 1.62793457 -12.06542969 0.82250977 C-7.85829116 -2.88981755 -4.96940199 -1.80705527 0 0 Z " fill="#FFBC5E" transform="translate(373,58)"/>
<path d="M0 0 C2.41562329 2.41562329 2.58926711 3.65540336 3 7 C2.76080322 9.30723572 2.76080322 9.30723572 2.24316406 11.69506836 C2.05256409 12.59627914 1.86196411 13.49748993 1.66558838 14.42601013 C1.45110046 15.38757523 1.23661255 16.34914032 1.015625 17.33984375 C0.79936462 18.33955704 0.58310425 19.33927032 0.36029053 20.36927795 C-0.09904866 22.48088504 -0.5633399 24.59142014 -1.03222656 26.70092773 C-1.74602114 29.91955861 -2.44053619 33.1419151 -3.1328125 36.36523438 C-3.58218338 38.41952272 -4.03266771 40.47356788 -4.484375 42.52734375 C-4.69076599 43.48688461 -4.89715698 44.44642548 -5.10980225 45.43504333 C-6.20717145 50.31879313 -7.36326953 54.67430594 -10 59 C-13.09173752 60.54586876 -15.59429552 60.29359521 -19 60 C-21.69877937 58.08244624 -22.76750209 56.84207501 -23.64886475 53.64990234 C-24.01356976 50.89759345 -23.82655979 48.99052657 -23.24316406 46.2890625 C-23.05256409 45.38462402 -22.86196411 44.48018555 -22.66558838 43.54833984 C-22.45110046 42.5836377 -22.23661255 41.61893555 -22.015625 40.625 C-21.79936462 39.62291504 -21.58310425 38.62083008 -21.36029053 37.58837891 C-20.9009892 35.47256953 -20.4366978 33.35783809 -19.96777344 31.24414062 C-19.25324315 28.01465815 -18.55914506 24.78125985 -17.8671875 21.546875 C-17.41788763 19.48931634 -16.96740596 17.43201531 -16.515625 15.375 C-16.30923401 14.41029785 -16.10284302 13.4455957 -15.89019775 12.45166016 C-14.85318404 7.83613196 -13.93436049 3.83027488 -11 0 C-6.84916837 -2.58024669 -4.35579886 -1.93591061 0 0 Z " fill="#FFBC5E" transform="translate(415,58)"/>
</svg>
