<?xml version="1.0" encoding="UTF-8"?>
<svg version="1.1" xmlns="http://www.w3.org/2000/svg" width="512" height="512">
<path d="M0 0 C1.93856369 -0.0131424 1.93856369 -0.0131424 3.91629028 -0.02655029 C7.43302932 -0.04917535 10.94902782 -0.04057818 14.46577835 -0.02465487 C18.16332092 -0.01190775 21.86080428 -0.02376024 25.55834961 -0.03158569 C31.76525133 -0.04065684 37.97185463 -0.02876143 44.17871094 -0.00488281 C51.33282484 0.02232393 58.48622603 0.01350794 65.64032269 -0.01401484 C71.80629629 -0.0367777 77.97205658 -0.03987117 84.13805866 -0.02682149 C87.81040931 -0.01906614 91.48242606 -0.01787618 95.15475464 -0.03450394 C99.25202961 -0.05176326 103.34809527 -0.02777688 107.4453125 0 C108.64664825 -0.01012115 109.84798401 -0.02024231 111.08572388 -0.03067017 C118.5973317 0.06331976 124.50781183 1.23739524 130.72265625 5.64697266 C134.19405943 9.30860164 136.72944245 12.63626482 137.72265625 17.64697266 C138.72941406 17.67275391 139.73617188 17.69853516 140.7734375 17.72509766 C183.01554439 19.24628156 221.80620286 39.11793847 250.76953125 69.41650391 C276.28138585 96.916831 293.03138709 135.38186544 292.8203125 173.05322266 C292.81819008 174.50118225 292.81819008 174.50118225 292.81602478 175.97839355 C292.81046705 179.0346193 292.79792255 182.09076938 292.78515625 185.14697266 C292.78013578 187.23030492 292.77557383 189.31363835 292.77148438 191.39697266 C292.76051149 196.48033475 292.74327636 201.56364091 292.72265625 206.64697266 C293.66665283 206.94192627 294.61064941 207.23687988 295.58325195 207.54077148 C298.89521703 208.70777621 300.4714725 209.85684785 302.91015625 212.33447266 C303.89048828 213.29933594 303.89048828 213.29933594 304.890625 214.28369141 C309.63166042 220.39952602 310.16710837 225.97788604 310.14257812 233.46264648 C310.15104767 234.4229628 310.15951721 235.38327911 310.16824341 236.37269592 C310.19155668 239.53326833 310.19263678 242.69335217 310.19140625 245.85400391 C310.19851196 248.06206963 310.20621156 250.27013351 310.21447754 252.47819519 C310.2279099 257.10229628 310.22949698 261.72622668 310.22363281 266.3503418 C310.21774243 272.25828909 310.24830754 278.165413 310.28874969 284.07320118 C310.31467838 288.63303493 310.3174993 293.1926719 310.31385803 297.7525692 C310.31554488 299.92974603 310.32514516 302.10693238 310.34300232 304.28403664 C310.36529062 307.33761294 310.35543908 310.38954159 310.33789062 313.44311523 C310.35778549 314.7753009 310.35778549 314.7753009 310.37808228 316.13439941 C310.28047343 323.49325593 308.12335059 330.31124936 302.76216888 335.57000446 C293.6707057 343.00447417 284.4327747 343.04377383 273.22265625 342.83447266 C271.81381639 342.81939878 270.40496093 342.80571516 268.99609375 342.79345703 C265.57121229 342.75826989 262.14713862 342.70903344 258.72265625 342.64697266 C258.74360352 343.63914795 258.76455078 344.63132324 258.78613281 345.65356445 C258.8595122 349.39771615 258.90480461 353.14180691 258.94238281 356.88647461 C258.96227863 358.49530792 258.98940554 360.10407107 259.02441406 361.71264648 C259.37919173 378.4550218 256.33862529 392.44586245 244.84765625 405.27197266 C234.17331182 415.32156449 221.15275327 419.46251714 206.72265625 419.64697266 C192.13766104 418.90827443 179.84287391 412.36270483 169.97265625 401.83447266 C160.84006034 390.84153314 158.58504965 377.26523836 156.6796875 363.49853516 C156.41970222 361.67520157 156.41970222 361.67520157 156.15446472 359.81503296 C155.79243704 357.26583109 155.43378432 354.71614783 155.07836914 352.16601562 C154.53367297 348.26133968 153.97764461 344.35840086 153.41992188 340.45556641 C153.06834732 337.96998302 152.71741321 335.48430895 152.3671875 332.99853516 C152.20160843 331.83391754 152.03602936 330.66929993 151.86543274 329.46939087 C151.7149498 328.38411102 151.56446686 327.29883118 151.40942383 326.18066406 C151.2763533 325.23011139 151.14328278 324.27955872 151.00617981 323.30020142 C150.73104742 320.72549767 150.67110822 318.23397649 150.72265625 315.64697266 C150.04203125 315.57220703 149.36140625 315.49744141 148.66015625 315.42041016 C135.7311523 313.66674207 118.02212046 308.6953757 108.98324585 298.72909546 C101.92689223 291.60387466 94.98597195 291.5953332 85.5144043 291.53540039 C83.52130594 291.54972144 81.52822165 291.56612978 79.53515625 291.58447266 C77.46589429 291.57907513 75.3966373 291.57130391 73.32739258 291.5612793 C69.00324929 291.54952434 64.68043349 291.56649665 60.35644531 291.60400391 C54.83458284 291.649587 49.31583117 291.6233211 43.79408264 291.57542419 C39.52487061 291.54640961 35.25638698 291.55576391 30.9871521 291.57644653 C28.95233789 291.5817542 26.9174559 291.57533649 24.88272095 291.55661011 C11.94003932 291.13941063 11.94003932 291.13941063 0.61132812 296.56835938 C-0.70879414 297.9047039 -2.00895461 299.26142999 -3.27734375 300.64697266 C-14.6590616 309.103203 -29.25090444 314.26965864 -43.27734375 315.64697266 C-43.32972702 316.36666229 -43.38211029 317.08635193 -43.43608093 317.82785034 C-44.0192013 325.35899037 -44.90370962 332.80504744 -45.984375 340.27978516 C-46.15104172 341.43767548 -46.31770844 342.5955658 -46.48942566 343.7885437 C-46.84115855 346.21741199 -47.19505234 348.64596827 -47.55102539 351.07421875 C-48.08918955 354.7674831 -48.61007897 358.46294125 -49.13085938 362.15869141 C-49.47679897 364.53254486 -49.82376937 366.90624837 -50.171875 369.27978516 C-50.39868706 370.91767502 -50.39868706 370.91767502 -50.63008118 372.58865356 C-52.66613309 386.12842823 -58.24660118 399.94926284 -69.27734375 408.64697266 C-82.81283941 417.8557045 -96.06440739 421.08264113 -112.26171875 418.62353516 C-125.91666929 415.70322863 -137.01101316 407.46170674 -144.58984375 395.89697266 C-151.08981826 383.86874435 -151.81711341 372.64884185 -151.52734375 359.33447266 C-151.50722413 357.70754181 -151.48898313 356.08058661 -151.47265625 354.45361328 C-151.43258844 350.51695057 -151.35424256 346.58376476 -151.27734375 342.64697266 C-156.55734375 342.64697266 -161.83734375 342.64697266 -167.27734375 342.64697266 C-167.23931917 358.71109854 -167.18026695 374.77494712 -167.09344101 390.83887672 C-167.05365279 398.29786153 -167.02125927 405.75674087 -167.00634766 413.21582031 C-166.99332992 419.71811956 -166.96636245 426.22018671 -166.92273068 432.72235525 C-166.90011821 436.16440458 -166.88443291 439.60616769 -166.8854599 443.04829788 C-166.88634551 446.89344019 -166.8560835 450.73799842 -166.82324219 454.58300781 C-166.82827255 455.72092773 -166.83330292 456.85884766 -166.83848572 458.03125 C-166.75660314 464.22036368 -166.43879519 467.94896963 -162.27734375 472.64697266 C-156.78195866 477.89351425 -150.61167723 477.24896915 -143.44140625 477.25634766 C-142.20691742 477.27288391 -140.97242859 477.28942017 -139.70053101 477.30645752 C-135.76775131 477.35494082 -131.83535837 477.37631051 -127.90234375 477.39697266 C-125.2317123 477.42293645 -122.56119902 477.45505894 -119.890625 477.48681641 C-113.35293479 477.56070032 -106.81535337 477.61234104 -100.27734375 477.64697266 C-100.13562744 476.53547852 -99.99391113 475.42398437 -99.84790039 474.27880859 C-99.30433149 470.81876112 -98.94966125 469.45452947 -96.71484375 466.89697266 C-96.25980469 466.34525391 -95.80476563 465.79353516 -95.3359375 465.22509766 C-88.47020779 459.96180581 -80.79139285 460.20521786 -72.52734375 460.24853516 C-71.3146582 460.24566498 -70.10197266 460.2427948 -68.85253906 460.23983765 C-66.29752127 460.237803 -63.74248769 460.24329069 -61.1875 460.25585938 C-57.29000825 460.27192047 -53.39355348 460.25598908 -49.49609375 460.23681641 C-47.00650814 460.23879894 -44.51692317 460.24264283 -42.02734375 460.24853516 C-40.86879883 460.24246246 -39.71025391 460.23638977 -38.51660156 460.23013306 C-31.38758638 460.29171446 -24.92865548 460.59843914 -19.21875 465.36572266 C-18.76371094 465.95353516 -18.30867187 466.54134766 -17.83984375 467.14697266 C-17.36675781 467.73478516 -16.89367187 468.32259766 -16.40625 468.92822266 C-12.97105302 474.15828034 -14.05237299 480.96184044 -14.02734375 486.95947266 C-14.00671875 488.1834375 -13.98609375 489.40740234 -13.96484375 490.66845703 C-13.95710938 492.44639648 -13.95710938 492.44639648 -13.94921875 494.26025391 C-13.93987305 495.34089111 -13.93052734 496.42152832 -13.92089844 497.53491211 C-14.40716673 501.78043399 -15.8845146 505.15490886 -18.8125 508.29150391 C-23.43087928 511.82320571 -25.50003269 512.77288021 -31.28417969 512.82397461 C-32.5459906 512.83680984 -33.80780151 512.84964508 -35.10784912 512.86286926 C-36.49246834 512.87103777 -37.877092 512.87848129 -39.26171875 512.88525391 C-39.95847969 512.88932943 -40.65524063 512.89340496 -41.37311554 512.89760399 C-45.06286828 512.91846789 -48.75258383 512.9327667 -52.44238281 512.94213867 C-56.24668286 512.95318825 -60.05039557 512.98756948 -63.85448837 513.02731037 C-66.78510597 513.05350877 -69.71558451 513.06183343 -72.6463089 513.06542015 C-74.04809779 513.07027991 -75.44988072 513.08187663 -76.85155487 513.10045815 C-78.81853554 513.12490735 -80.78580226 513.12145911 -82.75292969 513.11694336 C-83.87052673 513.1228096 -84.98812378 513.12867584 -86.1395874 513.13471985 C-90.75841808 512.41674769 -93.94038999 510.21089764 -96.95703125 506.68212891 C-97.35148437 506.03115234 -97.7459375 505.38017578 -98.15234375 504.70947266 C-98.56226562 504.06107422 -98.9721875 503.41267578 -99.39453125 502.74462891 C-100.4442342 500.25042323 -100.33980312 498.32858 -100.27734375 495.64697266 C-100.99429413 495.6558551 -101.71124451 495.66473755 -102.44992065 495.67388916 C-109.24557124 495.7544304 -116.0411494 495.81513637 -122.8371563 495.85422134 C-126.33012322 495.87499193 -129.82269189 495.90311271 -133.31542969 495.94873047 C-137.34183314 496.00098211 -141.36782602 496.02000463 -145.39453125 496.03759766 C-146.63347137 496.0582428 -147.8724115 496.07888794 -149.14889526 496.10015869 C-160.77499908 496.10313422 -168.62911718 493.18278846 -177.07421875 485.16259766 C-182.23631715 479.26828672 -185.40521941 472.23102339 -185.39759827 464.38887024 C-185.39897293 463.29932037 -185.4003476 462.20977051 -185.40176392 461.08720398 C-185.39816864 459.89174454 -185.39457336 458.6962851 -185.39086914 457.46459961 C-185.39101517 456.20595093 -185.39116119 454.94730225 -185.39131165 453.6505127 C-185.39159885 450.19830686 -185.38571445 446.74613569 -185.37873769 443.29393792 C-185.37249145 439.68645417 -185.37189934 436.07896965 -185.37071228 432.47148132 C-185.36760272 425.63983347 -185.35939437 418.80820159 -185.34936279 411.97656077 C-185.33819003 404.19913232 -185.33268827 396.42170311 -185.32766736 388.64426863 C-185.31721146 372.64516071 -185.29961925 356.64606875 -185.27734375 340.64697266 C-186.21449219 340.35048828 -187.15164062 340.05400391 -188.1171875 339.74853516 C-194.84715297 337.40261394 -198.04056653 332.70970537 -201.27734375 326.64697266 C-202.18265184 323.93104839 -202.40804009 322.33581881 -202.42451477 319.5436554 C-202.43167007 318.70967728 -202.43882538 317.87569916 -202.44619751 317.01644897 C-202.44888641 316.10472931 -202.45157532 315.19300964 -202.4543457 314.25366211 C-202.4609169 313.29071732 -202.4674881 312.32777252 -202.47425842 311.33564758 C-202.49399379 308.14384891 -202.50565537 304.95209732 -202.515625 301.76025391 C-202.51970053 300.6697341 -202.52377605 299.57921429 -202.52797508 298.45564842 C-202.54883809 292.68226689 -202.56313812 286.90890913 -202.57250977 281.13549805 C-202.58356702 275.17807324 -202.61795872 269.22102268 -202.65768147 263.26373005 C-202.68385438 258.67827164 -202.69220229 254.09290225 -202.69579124 249.50737572 C-202.70065641 247.31179467 -202.71226834 245.11621759 -202.73082924 242.92070961 C-202.75523154 239.84259215 -202.75425323 236.76544086 -202.74731445 233.68725586 C-202.76012451 232.78565735 -202.77293457 231.88405884 -202.78613281 230.95513916 C-202.72872155 223.94326309 -200.80965764 218.96557579 -196.56640625 213.40478516 C-196.01726562 212.86595703 -195.468125 212.32712891 -194.90234375 211.77197266 C-194.35835937 211.21767578 -193.814375 210.66337891 -193.25390625 210.09228516 C-190.75755229 208.26688799 -188.21057529 207.57459282 -185.27734375 206.64697266 C-185.2930542 205.40834473 -185.30876465 204.1697168 -185.32495117 202.89355469 C-185.38009097 198.20807649 -185.41399288 193.52262558 -185.44213867 188.83691406 C-185.45703702 186.82579698 -185.47736263 184.81471124 -185.50366211 182.80371094 C-185.71722533 166.02852905 -184.35842283 150.31308977 -179.58984375 134.14697266 C-179.33638184 133.27806396 -179.08291992 132.40915527 -178.82177734 131.51391602 C-171.29223539 106.69172177 -157.59767232 84.59055926 -139.61572266 66.03222656 C-138.46162799 64.83771122 -137.32657517 63.62485183 -136.1953125 62.40869141 C-111.36488311 36.3236719 -71.42609371 19.03816477 -35.578125 17.53369141 C-33.8108187 17.52443849 -32.04320394 17.57489673 -30.27734375 17.64697266 C-29.93703125 16.34759766 -29.93703125 16.34759766 -29.58984375 15.02197266 C-26.85657807 7.9935752 -22.82359192 4.88594734 -16.21505737 1.69987869 C-10.88746219 -0.20958487 -5.60463586 -0.0472186 0 0 Z M-13.27734375 22.64697266 C-14.53065392 25.9055791 -14.51014281 27.12011163 -13.08984375 30.33447266 C-11.16114064 32.7952318 -10.13525605 33.5158821 -7.27734375 34.64697266 C-4.84970455 34.95092986 -4.84970455 34.95092986 -2.20510864 34.91439819 C-1.18175415 34.92292816 -0.15839966 34.93145813 0.89596558 34.94024658 C2.57143967 34.93888702 2.57143967 34.93888702 4.28076172 34.9375 C6.05208466 34.94757584 6.05208466 34.94757584 7.85919189 34.95785522 C11.09483201 34.97359724 14.33031805 34.98021021 17.56599188 34.9814868 C19.58891872 34.98290951 21.61181875 34.98718136 23.63473892 34.99248123 C30.69612584 35.01097864 37.75743731 35.01915223 44.81884766 35.01757812 C51.39454785 35.01637686 57.96991975 35.03747657 64.54553688 35.06906545 C70.19663561 35.09524272 75.84762721 35.10594482 81.49878609 35.10466731 C84.87151964 35.10415808 88.24396137 35.1098188 91.61663437 35.13102341 C95.37995454 35.15060193 99.14242814 35.14487631 102.90576172 35.1328125 C104.01869598 35.14405151 105.13163025 35.15529053 106.27828979 35.16687012 C112.35632606 35.11731832 116.17180416 34.85644671 120.72265625 30.64697266 C122.05959967 26.95071731 122.07586906 25.40385725 120.41015625 21.83447266 C118.90687037 19.55781639 118.90687037 19.55781639 116.72265625 18.64697266 C115.05933917 18.54561928 113.39200074 18.50752427 111.72561646 18.49980164 C110.66846436 18.49264633 109.61131226 18.48549103 108.52212524 18.4781189 C106.77504776 18.47408554 106.77504776 18.47408554 104.99267578 18.4699707 C103.15845062 18.46011391 103.15845062 18.46011391 101.28717041 18.45005798 C97.92761058 18.43370311 94.56811376 18.4220963 91.208529 18.41385245 C89.11025781 18.40870316 87.01199105 18.40262744 84.91372299 18.39634132 C78.35058427 18.37729013 71.7874568 18.36305808 65.22429574 18.35472935 C57.64453626 18.34495203 50.06506844 18.31861965 42.48541176 18.27822846 C36.62887926 18.24808881 30.77243048 18.2332626 24.91582191 18.22994834 C21.41679379 18.22759563 17.91807727 18.21860711 14.41913223 18.19348717 C10.51646791 18.16592123 6.61418888 18.17003102 2.71142578 18.17700195 C1.55075592 18.16419189 0.39008606 18.15138184 -0.80575562 18.13818359 C-2.39994324 18.14859932 -2.39994324 18.14859932 -4.02633667 18.15922546 C-4.94921919 18.15683711 -5.87210171 18.15444876 -6.82295036 18.15198803 C-10.04595798 18.80198132 -11.22741399 20.1333062 -13.27734375 22.64697266 Z M-136.07226562 89.21337891 C-147.42068335 103.72676367 -156.11292691 119.91619865 -161.52734375 137.52197266 C-161.76155029 138.27502686 -161.99575684 139.02808105 -162.23706055 139.80395508 C-166.70753879 155.13565976 -167.69394128 169.83258166 -167.46484375 185.70947266 C-167.44974565 187.55907094 -167.43606645 189.40868137 -167.42382812 191.25830078 C-167.39387208 195.72175129 -167.33508929 200.18345655 -167.27734375 204.64697266 C-161.33734375 204.64697266 -155.39734375 204.64697266 -149.27734375 204.64697266 C-148.78234375 202.50197266 -148.28734375 200.35697266 -147.77734375 198.14697266 C-142.43453113 177.0519938 -128.40035401 156.28049165 -109.984375 144.54931641 C-106.47520059 142.46280646 -102.89305992 140.54247211 -99.27734375 138.64697266 C-98.37113281 138.16099609 -97.46492188 137.67501953 -96.53125 137.17431641 C-76.7984977 127.3529922 -50.95963735 126.0977725 -29.9609375 132.38916016 C-18.95441219 136.14748587 -7.16285964 140.70229175 1.20211124 149.13914013 C5.14343244 153.02093226 7.94902545 154.34274736 13.47009277 154.47125244 C14.3113269 154.4606781 15.15256104 154.45010376 16.01928711 154.43920898 C17.37679832 154.4573893 17.37679832 154.4573893 18.76173401 154.47593689 C21.73767031 154.50730701 24.71146775 154.49485804 27.6875 154.47900391 C29.76583925 154.48559048 31.84417391 154.49380964 33.92250061 154.50358582 C38.27273413 154.51692411 42.62222964 154.5081214 46.97241211 154.48413086 C52.53572995 154.45555827 58.096928 154.48559997 63.66005611 154.53276539 C67.95055168 154.56201564 72.24054416 154.55820941 76.53109932 154.54474449 C78.58153499 154.54259684 80.63201114 154.55104608 82.68235588 154.57047462 C95.05647161 155.22676336 95.05647161 155.22676336 105.81591797 150.24584961 C106.80260828 149.06080283 107.77343061 147.86223573 108.72265625 146.64697266 C111.02264119 144.93422827 113.43776328 143.47216786 115.91015625 142.02197266 C116.87779907 141.4513208 116.87779907 141.4513208 117.86499023 140.86914062 C123.90993692 137.39476062 130.06015429 134.72900452 136.72265625 132.64697266 C137.69203125 132.32857422 138.66140625 132.01017578 139.66015625 131.68212891 C165.32059195 124.72173572 192.25093954 130.13855116 214.99609375 142.92041016 C235.59769154 155.96612108 249.38696321 176.27291867 255.72265625 199.64697266 C256.05265625 201.29697266 256.38265625 202.94697266 256.72265625 204.64697266 C262.66265625 204.64697266 268.60265625 204.64697266 274.72265625 204.64697266 C274.79233417 199.26112732 274.85181416 193.87690748 274.88745117 188.4909668 C274.90233989 186.66701904 274.9226576 184.84310577 274.94897461 183.01928711 C275.16854163 167.38697619 273.70964742 152.78718574 269.09765625 137.77197266 C268.84532227 136.94737549 268.59298828 136.12277832 268.33300781 135.27319336 C256.88565529 99.48490368 230.85380678 69.16787303 197.72265625 51.64697266 C180.60476078 42.9770215 157.35063538 33.38590643 137.72265625 35.64697266 C135.6973639 37.62550841 135.6973639 37.62550841 134.34765625 40.33447266 C130.62278247 46.25735753 126.2784631 49.57252824 119.41723251 51.19068527 C116.68958375 51.652573 114.16336525 51.77840499 111.39849854 51.78741455 C110.34444824 51.79312469 109.29039795 51.79883484 108.20440674 51.80471802 C107.05832947 51.80583588 105.9122522 51.80695374 104.73144531 51.80810547 C103.51622192 51.81307037 102.30099854 51.81803528 101.0489502 51.82315063 C97.72228573 51.83523587 94.39568393 51.84271135 91.06900501 51.84716129 C88.98726191 51.85009909 86.90552423 51.85420524 84.82378387 51.85866547 C78.30068687 51.87232968 71.77760236 51.8820014 65.25449204 51.88586736 C57.74278562 51.89034457 50.23126148 51.90788122 42.71961045 51.93686795 C36.90115436 51.95853585 31.08274936 51.96857437 25.26425338 51.96990848 C21.79479305 51.97095292 18.32550432 51.97678334 14.85608673 51.99472809 C10.98114741 52.01438145 7.10643313 52.00989948 3.23144531 52.00341797 C2.09346497 52.01263275 0.95548462 52.02184753 -0.21697998 52.03134155 C-9.49521589 51.98283833 -18.44414555 50.44565975 -25.27734375 43.64697266 C-26.57379044 41.54610422 -27.71734629 39.46535422 -28.74609375 37.22119141 C-30.26564041 35.32509075 -30.26564041 35.32509075 -33.2890625 35.31494141 C-72.93538405 37.50491888 -111.31629254 58.4870713 -136.07226562 89.21337891 Z M-83.27734375 150.64697266 C-84.09976563 150.95892578 -84.9221875 151.27087891 -85.76953125 151.59228516 C-96.0111779 155.80943378 -104.40706368 161.90986145 -112.27734375 169.64697266 C-113.21900391 170.56929687 -113.21900391 170.56929687 -114.1796875 171.51025391 C-126.0960715 184.12919116 -133.36215321 202.21889088 -133.42451477 219.48931885 C-133.42819146 220.15300877 -133.43186815 220.8166987 -133.43565625 221.50050044 C-133.44661653 223.71111641 -133.45052378 225.92168525 -133.4543457 228.13232422 C-133.46061606 229.72287645 -133.46726336 231.31342723 -133.47425842 232.90397644 C-133.49523014 238.11517327 -133.50565316 243.32637017 -133.515625 248.53759766 C-133.51967489 250.33590459 -133.52379188 252.13421138 -133.52797508 253.93251801 C-133.54701024 262.3815181 -133.56124576 270.83050955 -133.56958705 279.27952695 C-133.57935875 289.01499659 -133.60568353 298.75023883 -133.64608794 308.48562837 C-133.6762912 316.02300017 -133.69105984 323.56030691 -133.69436806 331.09773803 C-133.69671335 335.59397097 -133.70560613 340.0899605 -133.73082924 344.58612823 C-133.75418946 348.81827726 -133.75831148 353.05002393 -133.74806786 357.28222084 C-133.74757434 358.8293193 -133.75384 360.37643813 -133.7676239 361.92347527 C-133.86977381 374.07486116 -132.33752634 383.59516272 -123.65625 392.59619141 C-115.80810638 399.36183246 -108.1177831 401.56915833 -97.828125 401.09619141 C-88.9678408 399.97525336 -82.22091151 396.32021949 -76.27734375 389.64697266 C-68.50005988 379.29751417 -67.78093199 365.19757542 -66.19140625 352.77197266 C-66.00702968 351.3899028 -65.82148935 350.00798777 -65.63485718 348.6262207 C-64.85225808 342.82837603 -64.07767484 337.02966584 -63.33496094 331.2265625 C-62.87635756 327.64931534 -62.39714613 324.07534267 -61.90455246 320.50262451 C-61.72224489 319.15131968 -61.54761641 317.7989544 -61.38106155 316.44561768 C-59.92048987 304.61424338 -59.92048987 304.61424338 -56.89916992 301.35351562 C-54.41581262 299.73710185 -52.87839527 298.9256543 -49.9765625 298.52978516 C-49.1721875 298.40192627 -48.3678125 298.27406738 -47.5390625 298.14233398 C-46.68957031 298.02011475 -45.84007812 297.89789551 -44.96484375 297.77197266 C-29.01451156 294.99781229 -15.19740155 288.84923847 -3.7631073 277.05319214 C0.45073102 273.57378742 4.88485579 273.91574485 10.14331055 273.93652344 C11.17990311 273.92133667 12.21649567 273.9061499 13.28450012 273.89050293 C16.70562357 273.84816691 20.12550604 273.84320712 23.546875 273.84228516 C25.93333951 273.8287516 28.3197991 273.81432378 30.70625305 273.79904175 C35.70883674 273.77362561 40.71098465 273.76834613 45.71362305 273.77539062 C52.10528485 273.78147898 58.49457211 273.72367559 64.88572979 273.64872932 C69.81626657 273.60048498 74.74623632 273.59368836 79.67698097 273.59838486 C82.03200984 273.5943468 84.38706168 273.57594886 86.74185753 273.54257584 C107.43961293 273.27934633 107.43961293 273.27934633 114.41333008 278.97851562 C115.86541936 280.52007737 117.30282619 282.07564885 118.72265625 283.64697266 C129.88714723 291.8234709 141.19448107 296.00135526 154.78100586 298.0402832 C155.60608643 298.17861572 156.43116699 298.31694824 157.28125 298.45947266 C158.01657959 298.56904297 158.75190918 298.67861328 159.50952148 298.79150391 C162.79528656 300.06158894 164.44396861 301.98123503 166.72265625 304.64697266 C167.68338013 307.80046082 167.68338013 307.80046082 168.16064453 311.38989258 C168.30081497 312.37638794 168.30081497 312.37638794 168.44381714 313.3828125 C168.74641931 315.54551038 169.01944806 317.71089112 169.29296875 319.87744141 C169.50077321 321.39362043 169.71067751 322.90951298 169.9225769 324.42512512 C170.47535194 328.41219737 171.00423873 332.40204849 171.5267334 336.39318848 C172.36406444 342.76282844 173.23522177 349.12787158 174.11089706 355.49233437 C174.41101371 357.70125093 174.69951619 359.91144184 174.98635864 362.12211609 C176.68801287 374.93069702 178.48311218 385.95502991 188.96875 394.47119141 C197.7617362 400.59514301 206.0966735 401.83000584 216.72265625 400.64697266 C225.90319014 397.84269808 233.17170391 392.2228233 237.74730682 383.74946785 C241.35377641 375.9106858 241.28921396 368.2501341 241.24023438 359.80273438 C241.24566418 358.22132221 241.25279164 356.63991511 241.26147461 355.05851746 C241.27961795 350.78738279 241.2726755 346.51663723 241.25995827 342.24549627 C241.24977307 337.75399636 241.25924017 333.26252795 241.26550293 328.77102661 C241.27276785 321.2240812 241.26322676 313.67729265 241.24414062 306.13037109 C241.22242147 297.44279085 241.22939175 288.7555869 241.25144625 280.06801593 C241.26969009 272.57799718 241.27211356 265.08809074 241.26169157 257.59805691 C241.2554996 253.13862087 241.25450011 248.67936066 241.26783752 244.21993637 C241.27952533 240.01884745 241.27113869 235.81823528 241.2482605 231.61719704 C241.24303948 230.08876264 241.24437136 228.56028705 241.25331116 227.03186989 C241.32488202 213.53465102 239.42387976 200.25454883 232.91015625 188.20947266 C232.5639624 187.54681396 232.21776855 186.88415527 231.86108398 186.20141602 C229.00992379 180.88424663 225.79311673 176.11666806 221.72265625 171.64697266 C221.04589844 170.89029297 220.36914062 170.13361328 219.671875 169.35400391 C214.30628695 163.66438389 208.50107278 159.51168178 201.72265625 155.64697266 C201.04460937 155.25767578 200.3665625 154.86837891 199.66796875 154.46728516 C182.03111818 145.02681327 160.43418366 143.72636472 141.3671875 149.32275391 C129.85660342 153.50505616 119.80842979 159.35408043 111.22938538 168.22509766 C107.00940107 171.70366521 102.60079904 171.3929416 97.33374023 171.38916016 C96.30036026 171.40755951 95.26698029 171.42595886 94.20228577 171.44491577 C90.79082605 171.49744063 87.38058347 171.51214019 83.96875 171.52197266 C81.58707724 171.5405903 79.20540908 171.55980508 76.82374573 171.57958984 C71.82957653 171.61403333 66.83583454 171.62730008 61.84155273 171.62841797 C55.46762243 171.63348638 49.09694134 171.71198975 42.72384548 171.80947876 C37.8017917 171.87286212 32.88050965 171.88589696 27.95808601 171.88531494 C25.61023284 171.89302098 23.26236332 171.91854975 20.91491508 171.96282959 C-0.2814928 172.32774661 -0.2814928 172.32774661 -7.95288086 165.31103516 C-8.89323944 164.3514769 -9.81917324 163.37749518 -10.72764587 162.38769531 C-20.45028616 151.93662942 -37.50542811 146.91629584 -51.40234375 146.40869141 C-62.74439764 146.19647403 -72.60889979 146.43191987 -83.27734375 150.64697266 Z M-183.27734375 225.64697266 C-184.92781126 228.94790767 -184.44282029 232.62626165 -184.4543457 236.25585938 C-184.4609169 237.14705475 -184.4674881 238.03825012 -184.47425842 238.95645142 C-184.49401108 241.91318845 -184.50565739 244.8698747 -184.515625 247.82666016 C-184.51970053 248.83482914 -184.52377605 249.84299812 -184.52797508 250.88171768 C-184.5488426 256.21606492 -184.56314229 261.55038638 -184.57250977 266.88476562 C-184.58358543 272.40207191 -184.61799681 277.91897612 -184.65768147 283.43614006 C-184.68378857 287.67229986 -184.69219626 291.90836292 -184.69579124 296.1445961 C-184.70067123 298.17881109 -184.71232514 300.21302137 -184.73082924 302.24715805 C-184.75509875 305.09153153 -184.75427821 307.93485222 -184.74731445 310.77929688 C-184.76012451 311.62204163 -184.77293457 312.46478638 -184.78613281 313.33306885 C-184.75323436 317.01297218 -184.64378478 319.167512 -182.37297058 322.13870239 C-172.62285286 329.15608374 -169.5389624 324.64697266 -151.27734375 324.64697266 C-151.27734375 290.98697266 -151.27734375 257.32697266 -151.27734375 222.64697266 C-175.3904509 220.33174176 -175.3904509 220.33174176 -183.27734375 225.64697266 Z M258.72265625 222.64697266 C258.72265625 256.30697266 258.72265625 289.96697266 258.72265625 324.64697266 C282.8357634 326.96220356 282.8357634 326.96220356 290.72265625 321.64697266 C292.37312376 318.34603764 291.88813279 314.66768366 291.8996582 311.03808594 C291.9062294 310.14689056 291.9128006 309.25569519 291.91957092 308.3374939 C291.93932358 305.38075686 291.95096989 302.42407061 291.9609375 299.46728516 C291.96501303 298.45911617 291.96908855 297.45094719 291.97328758 296.41222763 C291.9941551 291.07788039 292.00845479 285.74355894 292.01782227 280.40917969 C292.02889793 274.8918734 292.06330931 269.37496919 292.10299397 263.85780525 C292.12910107 259.62164545 292.13750876 255.38558239 292.14110374 251.14934921 C292.14598373 249.11513422 292.15763764 247.08092394 292.17614174 245.04678726 C292.20041125 242.20241379 292.19959071 239.35909309 292.19262695 236.51464844 C292.20543701 235.67190369 292.21824707 234.82915894 292.23144531 233.96087646 C292.19854686 230.28097313 292.08909728 228.12643331 289.81828308 225.15524292 C280.06816536 218.13786158 276.9842749 222.64697266 258.72265625 222.64697266 Z M-82.27734375 478.64697266 C-82.27734375 483.92697266 -82.27734375 489.20697266 -82.27734375 494.64697266 C-65.77734375 494.64697266 -49.27734375 494.64697266 -32.27734375 494.64697266 C-32.27734375 489.36697266 -32.27734375 484.08697266 -32.27734375 478.64697266 C-48.77734375 478.64697266 -65.27734375 478.64697266 -82.27734375 478.64697266 Z " fill="#FFBC5E" transform="translate(202.27734375,-0.64697265625)"/>
<path d="M0 0 C2.53879592 2.19729416 3.84960011 3.91340431 4.31616211 7.28417969 C4.39374286 9.9712716 4.34871901 12.62620385 4.25 15.3125 C4.23195312 16.24384766 4.21390625 17.17519531 4.1953125 18.13476562 C4.14834888 20.42424197 4.08269475 22.71158184 4 25 C4.57967529 24.97905273 5.15935059 24.95810547 5.7565918 24.93652344 C8.40004924 24.85303193 11.0432288 24.80123847 13.6875 24.75 C15.05551758 24.69972656 15.05551758 24.69972656 16.45117188 24.6484375 C20.7579916 24.58579285 23.29840703 24.59007052 27.08203125 26.80078125 C29.7462241 29.85565003 30 31.98368783 30 36 C28.77511654 38.90103977 27.86101981 40.4706544 25.17089844 42.12451172 C22.75399421 43.09921016 21.04972585 43.2304017 18.453125 43.1953125 C17.18662109 43.18564453 17.18662109 43.18564453 15.89453125 43.17578125 C14.58548828 43.15064453 14.58548828 43.15064453 13.25 43.125 C12.36183594 43.11597656 11.47367188 43.10695312 10.55859375 43.09765625 C8.37211942 43.07414577 6.18619906 43.04128499 4 43 C4.02618408 43.57967529 4.05236816 44.15935059 4.0793457 44.7565918 C4.18370612 47.39994875 4.24844327 50.04287199 4.3125 52.6875 C4.35439453 53.59951172 4.39628906 54.51152344 4.43945312 55.45117188 C4.52343791 60.0703351 4.52614231 62.28006345 1.73046875 66.10546875 C-1.98828519 68.68572006 -1.98828519 68.68572006 -5 68.625 C-5.9590625 68.64433594 -5.9590625 68.64433594 -6.9375 68.6640625 C-10.44294443 67.53541562 -11.83108758 65.96778895 -14 63 C-14.60121695 59.53912015 -14.47323877 56.18665934 -14.3125 52.6875 C-14.28994141 51.75615234 -14.26738281 50.82480469 -14.24414062 49.86523438 C-14.18542078 47.5751604 -14.10336858 45.28842125 -14 43 C-15.31355469 43.03480469 -16.62710938 43.06960937 -17.98046875 43.10546875 C-19.71613301 43.13361466 -21.45181115 43.16091396 -23.1875 43.1875 C-24.48397461 43.22520508 -24.48397461 43.22520508 -25.80664062 43.26367188 C-30.6572471 43.31942597 -34.14492813 43.31414281 -38 40 C-39.5402467 36.38376861 -40.25271313 34.11193778 -39.375 30.25 C-37.81813986 27.70241069 -36.52675363 26.57378264 -34 25 C-31.70996094 24.65942383 -31.70996094 24.65942383 -29.234375 24.70703125 C-28.34492187 24.71669922 -27.45546875 24.72636719 -26.5390625 24.73632812 C-25.61867188 24.76146484 -24.69828125 24.78660156 -23.75 24.8125 C-22.81414062 24.82603516 -21.87828125 24.83957031 -20.9140625 24.85351562 C-18.60878673 24.88880046 -16.3046894 24.93809719 -14 25 C-14.02094727 24.42032471 -14.04189453 23.84064941 -14.06347656 23.2434082 C-14.14696807 20.59995076 -14.19876153 17.9567712 -14.25 15.3125 C-14.30027344 13.94448242 -14.30027344 13.94448242 -14.3515625 12.54882812 C-14.41447027 8.22391922 -14.41821932 5.70507489 -12.171875 1.91796875 C-8.17615856 -1.61062257 -4.99172185 -1.22603695 0 0 Z " fill="#FFBC5E" transform="translate(150,188)"/>
<path d="M0 0 C1.17230919 -0.0049926 1.17230919 -0.0049926 2.36830139 -0.01008606 C4.01823337 -0.01513947 5.66817553 -0.01749488 7.31811523 -0.01733398 C9.83529567 -0.01952051 12.35203765 -0.03769284 14.86914062 -0.05664062 C16.47525892 -0.05957492 18.0813793 -0.06155947 19.6875 -0.0625 C20.43660141 -0.06968552 21.18570282 -0.07687103 21.95750427 -0.08427429 C27.01329605 -0.06228743 30.94070602 0.33434267 34.72265625 3.85546875 C36.44577654 7.21101878 36.43223714 9.4481424 35.91015625 13.16796875 C33.90331079 15.94508277 32.30711865 17.84809611 28.86914062 18.63531494 C26.3695937 18.83029391 23.91718245 18.86095715 21.41015625 18.83203125 C20.49685547 18.83681488 19.58355469 18.84159851 18.64257812 18.8465271 C16.71612826 18.84992192 14.78962046 18.84074869 12.86328125 18.81982422 C9.91926277 18.79305156 6.97905655 18.81958497 4.03515625 18.8515625 C2.16014786 18.84825833 0.28514183 18.84185193 -1.58984375 18.83203125 C-2.9056543 18.84721298 -2.9056543 18.84721298 -4.24804688 18.86270142 C-8.6517511 18.77850726 -10.5399625 18.58555897 -14.1484375 15.84521484 C-16.08984375 13.16796875 -16.08984375 13.16796875 -16.65234375 9.66796875 C-16.00234307 5.6235201 -15.04978996 3.96347351 -12.08984375 1.16796875 C-8.23300983 -0.30001239 -4.06909482 0.00602853 0 0 Z " fill="#FFBC5E" transform="translate(246.08984375,237.83203125)"/>
<path d="M0 0 C0.99386719 -0.02900391 1.98773438 -0.05800781 3.01171875 -0.08789062 C10.35721765 -0.15180728 10.35721765 -0.15180728 14.2578125 2.20703125 C16.67769167 4.93572345 17.08306176 5.94204555 17.5 9.625 C17.125 13.3125 17.125 13.3125 15.38671875 16.0078125 C10.36234252 19.55797056 5.56116773 19.00132368 -0.4375 18.875 C-1.57380859 18.88595703 -2.71011719 18.89691406 -3.88085938 18.90820312 C-12.24895431 18.83414919 -12.24895431 18.83414919 -15.16772461 16.40209961 C-17.98888683 12.94917133 -18.31117072 10.76144138 -17.875 6.3125 C-13.27916147 -0.81897358 -7.74546098 0.07476314 0 0 Z " fill="#FFBC5E" transform="translate(281.875,186.6875)"/>
<path d="M0 0 C0.99837891 -0.020625 1.99675781 -0.04125 3.02539062 -0.0625 C12.31490315 -0.11201106 12.31490315 -0.11201106 16.1875 3.25 C18.52659307 6.7586396 18.60041057 8.12089433 18.1875 12.25 C15.92279412 16.88235294 15.92279412 16.88235294 13.1875 18.25 C9.0900007 18.57354067 4.98368877 18.57447392 0.875 18.625 C-0.83719727 18.68107422 -0.83719727 18.68107422 -2.58398438 18.73828125 C-10.99717399 18.82678938 -10.99717399 18.82678938 -15.0703125 15.9453125 C-17.36957951 12.38815053 -17.48153328 10.41287374 -16.8125 6.25 C-12.21299934 -0.80256767 -7.78956379 0.03976803 0 0 Z " fill="#FFBC5E" transform="translate(229.8125,186.75)"/>
<path d="M0 0 C2.43119623 1.87015094 3.64069173 3.28138345 5 6 C5.14943856 8.26744274 5.22144902 10.5403175 5.25 12.8125 C5.27578125 14.03582031 5.3015625 15.25914062 5.328125 16.51953125 C4.97873546 20.22555603 4.23569119 22.06429871 2 25 C-1.15796107 26.57898053 -4.60670636 26.81928171 -8 26 C-11.69042615 23.25733035 -12.86750555 21.76067402 -13.6640625 17.1875 C-13.67723073 15.79166805 -13.66361697 14.3953598 -13.625 13 C-13.64433594 12.30132812 -13.66367187 11.60265625 -13.68359375 10.8828125 C-13.64683233 6.98610219 -13.10896676 5.14137739 -10.71484375 2.03515625 C-6.64730287 -1.01403627 -4.97322196 -0.71046028 0 0 Z " fill="#FFBC5E" transform="translate(371,179)"/>
<path d="M0 0 C0.69867188 -0.01933594 1.39734375 -0.03867188 2.1171875 -0.05859375 C6.01389781 -0.02183233 7.85862261 0.51603324 10.96484375 2.91015625 C14.01403627 6.97769713 13.71046028 8.65177804 13 13.625 C11.12984906 16.05619623 9.71861655 17.26569173 7 18.625 C4.71080222 18.74835276 2.41748782 18.80058478 0.125 18.8125 C-1.72738281 18.83376953 -1.72738281 18.83376953 -3.6171875 18.85546875 C-6.78507691 18.63964257 -8.43552766 18.42013064 -11 16.625 C-13.11212504 13.45681244 -13.33156464 11.49280748 -13.55859375 7.7578125 C-11.76203201 0.89821313 -6.24009687 -0.17269641 0 0 Z " fill="#FFBC5E" transform="translate(337,212.375)"/>
<path d="M0 0 C2.58193072 2.47435028 2.98774365 3.90117624 3.43359375 7.49609375 C3.43488281 8.79675781 3.43617188 10.09742188 3.4375 11.4375 C3.46650391 13.38462891 3.46650391 13.38462891 3.49609375 15.37109375 C2.93326206 19.48818538 1.90978445 21.10105274 -1 24 C-3.7798816 25.3899408 -5.9186326 25.18488204 -9 25 C-11.49155603 24.16948132 -12.61924396 23.56565556 -14.0859375 21.38671875 C-15.35842413 18.06411476 -15.33981995 15.11216684 -15.375 11.5625 C-15.40335937 10.26441406 -15.43171875 8.96632812 -15.4609375 7.62890625 C-14.93605211 3.49654588 -13.91249445 1.90705054 -11 -1 C-7.23283204 -2.94853515 -3.77406064 -1.44100497 0 0 Z " fill="#FFBC5E" transform="translate(373,240)"/>
<path d="M0 0 C0.69867188 -0.01933594 1.39734375 -0.03867188 2.1171875 -0.05859375 C6.03849537 -0.02160028 7.85517409 0.51165799 10.96484375 2.9453125 C13 5.625 13 5.625 13.5625 9.125 C12.91877781 13.13038252 11.84054174 14.78445826 9 17.625 C6.07539571 19.08730215 3.44347176 18.83408727 0.1875 18.875 C-1.64748047 18.91367188 -1.64748047 18.91367188 -3.51953125 18.953125 C-7.22555603 18.60373546 -9.06429871 17.86069119 -12 15.625 C-13.57898053 12.46703893 -13.81928171 9.01829364 -13 5.625 C-9.28990495 0.63284508 -5.95887043 -0.16491339 0 0 Z " fill="#FFBC5E" transform="translate(397,212.375)"/>
</svg>
